<svg width="1065" height="597" viewBox="0 0 1065 597" fill="none" xmlns="http://www.w3.org/2000/svg">
<g clip-path="url(#clip0_481_98)">
<mask id="mask0_481_98" style="mask-type:luminance" maskUnits="userSpaceOnUse" x="274" y="452" width="335" height="105">
<path d="M274 452H609V557H274V452Z" fill="white"/>
</mask>
<g mask="url(#mask0_481_98)">
<path d="M515.512 491.56C511.988 489.095 507.378 487.466 507.378 487.466C513.592 487.879 516.829 489.517 518.517 491.069C516.004 482.035 506.832 474.04 506.832 474.04C515.66 476.132 520.562 482.692 523.179 488.113C524.15 471.966 520.415 452 520.415 452C528.259 468.779 529.886 481.513 529.734 489.653C530.739 489.523 531.735 489.397 532.726 489.271C541.359 482.861 553.553 480.632 553.553 480.632C548.796 482.644 545.064 485.344 542.18 488.109C582.389 483.306 609 481.937 609 481.937V557L274 556.86C348.267 520.559 445.074 501.386 515.512 491.56Z" fill="#939498"/>
</g>
<mask id="mask1_481_98" style="mask-type:luminance" maskUnits="userSpaceOnUse" x="233" y="242" width="649" height="336">
<path d="M881.133 242H233.133V578H881.133V242Z" fill="white"/>
</mask>
<g mask="url(#mask1_481_98)">
<mask id="mask2_481_98" style="mask-type:luminance" maskUnits="userSpaceOnUse" x="198" y="242" width="683" height="336">
<path d="M881 242H198V578H881V242Z" fill="white"/>
</mask>
<g mask="url(#mask2_481_98)">
<path d="M272.595 495.425L272.588 511.009L231.859 511.007L230.922 511.009L197.875 511.001L197.883 495.429L230.789 495.427L231.669 495.425H272.595Z" fill="#020202"/>
<path d="M880.093 451.894V476.14L880.074 511.44L846.535 511.42L817.012 511.4L777.928 511.381L751.187 511.361L588.586 511.243H587.43L392.112 511.106H392.092L362.471 511.086H362.452L323.799 511.067L296.941 511.047L231.88 511.008H231.861V509.064L231.841 495.419L231.802 474.628V474.491L231.743 443.393L231.41 243.649H568.642C580.201 243.492 586.705 252.582 586.881 264.146L589.879 264.578H713.534C730.127 264.578 738.434 277.32 745.565 297.836C746.055 299.23 755.634 334.961 755.634 334.961L774.441 409.291H841.676C860.246 409.31 875.429 425.154 879.192 443.255C879.31 443.825 879.408 444.394 879.506 444.983C879.878 447.26 880.074 449.577 880.093 451.894Z" fill="#DCD9D3"/>
<path d="M881.132 524.279L849.081 524.358L821.674 524.436L773.246 524.554L748.601 524.613L587.645 525.025H587.626L394.776 525.516L367.369 525.575L318.862 525.712L294.257 525.771L231.41 525.93L231.802 474.628V474.491H266.458L586.901 474.451H588.057L872.277 474.412C872.277 474.412 872.277 474.412 872.296 474.412H880.093V474.53L881.132 524.279Z" fill="#3AFF4E"/>
<path d="M344.51 576.312C372.29 576.312 394.811 554.254 394.811 527.044C394.811 499.834 372.29 477.775 344.51 477.775C316.729 477.775 294.209 499.834 294.209 527.044C294.209 554.254 316.729 576.312 344.51 576.312Z" fill="#020202"/>
<path d="M343.114 549.277C356.51 549.277 367.37 538.614 367.37 525.459C367.37 512.304 356.51 501.641 343.114 501.641C329.719 501.641 318.859 512.304 318.859 525.459C318.859 538.614 329.719 549.277 343.114 549.277Z" fill="#939598"/>
<path d="M798.852 576.351C826.632 576.351 849.152 554.293 849.152 527.083C849.152 499.873 826.632 477.814 798.852 477.814C771.071 477.814 748.551 499.873 748.551 527.083C748.551 554.293 771.071 576.351 798.852 576.351Z" fill="#020202"/>
<path d="M797.458 549.316C810.854 549.316 821.713 538.653 821.713 525.498C821.713 512.344 810.854 501.68 797.458 501.68C784.063 501.68 773.203 512.344 773.203 525.498C773.203 538.653 784.063 549.316 797.458 549.316Z" fill="#939598"/>
<path d="M266.459 474.491V474.55L231.803 474.628V474.491L231.744 443.393H237.327C253.411 443.393 266.439 457.214 266.459 474.491Z" fill="#FDBB3F"/>
<path d="M880.092 451.889V474.408L874.713 474.487C858.262 474.736 844.757 460.901 844.521 443.765L879.193 443.251C879.305 443.828 879.406 444.396 879.506 444.975C879.886 447.254 880.082 449.571 880.092 451.889Z" fill="#FDBB3F"/>
<path d="M699.471 286.343L701.743 410.434L755.517 410.192L748.431 372.209C739.371 332.164 732.557 284.784 699.471 286.343Z" fill="#020202"/>
<path d="M676.54 411.266H599.988V310.405C599.988 297.602 610.344 287.223 623.121 287.223H653.41C666.185 287.223 676.542 297.601 676.542 310.405V411.266H676.54Z" fill="#020202"/>
<path d="M586.78 264.539L584.311 525.006L585.47 525.017L587.939 264.55L586.78 264.539Z" fill="#020202"/>
<path d="M601.428 419.07L601.377 423.261L625.99 423.562L626.041 419.371L601.428 419.07Z" fill="#020202"/>
</g>
</g>
<mask id="mask3_481_98" style="mask-type:luminance" maskUnits="userSpaceOnUse" x="0" y="45" width="1150" height="533">
<path d="M1150 45H0V578H1150V45Z" fill="white"/>
</mask>
<g mask="url(#mask3_481_98)">
<path d="M1065 552H0V578H1065V552Z" fill="#DCD9D3"/>
<path d="M218.732 174.4H187.641V551.642H218.732V174.4Z" fill="#939598"/>
<path d="M53.2183 194.594H40.1992V551.643H53.2183V194.594Z" fill="#DCD9D3"/>
<path d="M187.641 251.47H53.2168V551.642H187.641V251.47Z" fill="#3AFF4E"/>
<path d="M316.449 561.662C316.129 548.098 315.852 458.471 315.852 458.471L307.855 458.476L308.119 559.977L33.6351 560.008L32.9836 356.822H56.0863V349.696H31.0569C29.2301 349.696 27.3214 350.16 26.0987 351.364C25.297 352.153 24.9668 353.293 24.9668 354.78C24.9674 380.855 25.6386 562.723 25.6386 562.723C25.8746 566.052 28.8773 567.05 34.1471 567.067H308.536C315.033 567.105 316.703 562.125 316.449 561.662Z" fill="#939598"/>
<path d="M387.163 194.615H19.2109L47.1217 45H359.253L387.163 194.615Z" fill="#939598"/>
<path d="M370.65 180.14H38.3125L60.0716 51.8936H348.549L370.65 180.14Z" fill="#DCD9D3"/>
<path d="M96.1154 88.682H63.5163C61.545 87.0784 60.4425 86.1815 58.4824 84.5869L62.809 58.3891C65.2054 56.8936 66.545 56.0578 68.9284 54.5703H100.264C102.23 56.0573 103.336 56.8936 105.313 58.3891L102.297 84.5869C99.8899 86.1815 98.5361 87.0779 96.1154 88.682Z" fill="#161616"/>
<path d="M91.0246 130.556H56.8747C54.8221 128.796 53.675 127.812 51.6348 126.063L56.374 97.3666C58.8918 95.731 60.2997 94.8166 62.8028 93.1904H95.569C97.6166 94.8166 98.7682 95.731 100.828 97.3666L97.5234 126.063C94.9932 127.813 93.57 128.796 91.0246 130.556Z" fill="#161616"/>
<path d="M85.4576 176.311H49.6136C47.474 174.373 46.2783 173.289 44.1523 171.363L49.3629 139.812C52.0145 138.017 53.4964 137.013 56.1322 135.229H90.4548C92.5904 137.013 93.7911 138.017 95.9392 139.812L92.3064 171.363C89.6402 173.289 88.1408 174.373 85.4576 176.311Z" fill="#161616"/>
<path d="M145.507 88.682H112.908C110.847 87.0784 109.694 86.1815 107.645 84.5869L110.501 58.3891C112.813 56.8936 114.107 56.0578 116.407 54.5703H147.742C149.792 56.0573 150.945 56.8936 153.006 58.3891L151.459 84.5869C149.141 86.1815 147.838 87.0779 145.507 88.682Z" fill="#161616"/>
<path d="M142.765 130.556H108.615C106.464 128.796 105.261 127.812 103.123 126.063L106.252 97.3666C108.679 95.731 110.035 94.8166 112.447 93.1904H145.213C147.352 94.8166 148.554 95.731 150.706 97.3666L149.012 126.063C146.579 127.813 145.211 128.796 142.765 130.556Z" fill="#161616"/>
<path d="M139.767 176.311H103.923C101.675 174.373 100.418 173.289 98.1836 171.363L101.624 139.812C104.174 138.017 105.6 137.013 108.136 135.229H142.458C144.694 137.013 145.951 138.017 148.2 139.812L146.337 171.363C143.779 173.289 142.341 174.373 139.767 176.311Z" fill="#161616"/>
<path d="M194.818 88.8067H162.215C160.063 87.2026 158.86 86.3057 156.721 84.7106L158.11 58.5054C160.339 57.0094 161.585 56.173 163.802 54.6855H195.142C197.276 56.173 198.475 57.0094 200.621 58.5054L200.541 84.7106C198.313 86.3052 197.06 87.2021 194.818 88.8067Z" fill="#161616"/>
<path d="M194.421 130.693H160.266C158.016 128.933 156.758 127.949 154.521 126.198L156.043 97.4936C158.378 95.8575 159.684 94.943 162.005 93.3164H194.776C197.007 94.943 198.26 95.8575 200.504 97.4936L200.417 126.198C198.083 127.948 196.77 128.932 194.421 130.693Z" fill="#161616"/>
<path d="M193.986 176.461H158.136C155.78 174.522 154.462 173.438 152.119 171.511L153.792 139.951C156.243 138.155 157.613 137.151 160.048 135.366H194.376C196.712 137.151 198.025 138.155 200.375 139.951L200.28 171.511C197.83 173.438 196.452 174.522 193.986 176.461Z" fill="#161616"/>
<path d="M244.219 88.8067H211.615C209.373 87.2026 208.12 86.3057 205.891 84.7106L205.811 58.5054C207.956 57.0094 209.155 56.173 211.288 54.6855H242.628C244.845 56.173 246.092 57.0094 248.321 58.5054L249.713 84.7106C247.573 86.3052 246.37 87.2021 244.219 88.8067Z" fill="#161616"/>
<path d="M246.172 130.693H212.017C209.668 128.933 208.355 127.949 206.02 126.198L205.932 97.4936C208.175 95.8575 209.429 94.943 211.659 93.3164H244.43C246.751 94.943 248.057 95.8575 250.391 97.4936L251.916 126.198C249.679 127.948 248.421 128.932 246.172 130.693Z" fill="#161616"/>
<path d="M248.303 176.461H212.453C209.987 174.522 208.609 173.438 206.158 171.511L206.061 139.951C208.41 138.155 209.724 137.151 212.059 135.366H246.387C248.823 137.151 250.193 138.155 252.644 139.951L254.319 171.511C251.977 173.438 250.66 174.522 248.303 176.461Z" fill="#161616"/>
<path d="M294.524 88.9314H261.916C259.582 87.3268 258.278 86.4294 255.957 84.8338L254.379 58.6216C256.439 57.1256 257.59 56.2888 259.639 54.8008H290.983C293.285 56.2888 294.58 57.1256 296.895 58.6216L299.784 84.8338C297.736 86.4299 296.584 87.3268 294.524 88.9314Z" fill="#161616"/>
<path d="M298.87 130.83H264.71C262.261 129.07 260.891 128.085 258.456 126.335L256.727 97.622C258.876 95.9854 260.078 95.0705 262.216 93.4434H294.991C297.406 95.0705 298.764 95.9854 301.193 97.622L304.357 126.335C302.222 128.085 301.02 129.07 298.87 130.83Z" fill="#161616"/>
<path d="M303.62 176.614H267.764C265.187 174.674 263.747 173.589 261.186 171.662L259.285 140.092C261.533 138.296 262.789 137.292 265.023 135.506H299.356C301.894 137.292 303.322 138.296 305.875 140.092L309.355 171.662C307.121 173.589 305.866 174.674 303.62 176.614Z" fill="#161616"/>
<path d="M343.931 88.9314H311.323C308.9 87.3268 307.545 86.4294 305.135 84.8338L302.086 58.6216C304.062 57.1256 305.167 56.2888 307.132 54.8008H338.476C340.862 56.2888 342.203 57.1256 344.602 58.6216L348.961 84.8338C347.003 86.4299 345.902 87.3268 343.931 88.9314Z" fill="#161616"/>
<path d="M350.63 130.83H316.47C313.921 129.07 312.496 128.085 309.963 126.335L306.623 97.622C308.681 95.9854 309.832 95.0705 311.878 93.4434H344.653C347.16 95.0705 348.569 95.9854 351.09 97.622L355.866 126.335C353.826 128.085 352.68 129.07 350.63 130.83Z" fill="#161616"/>
<path d="M357.947 176.614H322.091C319.405 174.674 317.904 173.589 315.235 171.662L311.562 140.092C313.709 138.296 314.909 137.292 317.043 135.506H351.376C354.015 137.292 355.498 138.296 358.153 140.092L363.404 171.662C361.279 173.589 360.084 174.674 357.947 176.614Z" fill="#161616"/>
<path d="M315.853 458.471L307.993 458.623L303.447 453.227L303.591 447.401L308.341 443.281H314.914L319.939 447.543L319.796 453.369L315.853 458.471Z" fill="#939598"/>
<path d="M187.642 349.696H40.1992V406.521H187.642V349.696Z" fill="#161616"/>
</g>
</g>
<defs>
<clipPath id="clip0_481_98">
<rect width="1065" height="597" fill="white"/>
</clipPath>
</defs>
</svg>
