<svg width="196" height="63" viewBox="0 0 196 63" fill="none" xmlns="http://www.w3.org/2000/svg">
<mask id="path-1-inside-1_316_191" fill="white">
<path fill-rule="evenodd" clip-rule="evenodd" d="M2 0C0.895431 0 0 0.89543 0 2V61C0 62.1046 0.895424 63 1.99999 63H180.7C181.805 63 182.7 62.1046 182.7 61V2C182.7 0.895431 181.805 0 180.7 0H2ZM193.3 47.25H185.85V22.05H193.3C194.405 22.05 195.3 22.9454 195.3 24.05V45.25C195.3 46.3546 194.405 47.25 193.3 47.25Z"/>
</mask>
<path d="M185.85 47.25H183.85V49.25H185.85V47.25ZM185.85 22.05V20.05H183.85V22.05H185.85ZM2 2V2V-2C-0.209139 -2 -2 -0.209139 -2 2H2ZM2 61V2H-2V61H2ZM1.99999 61H2H-2C-2 63.2091 -0.209155 65 1.99999 65V61ZM180.7 61H1.99999V65H180.7V61ZM180.7 61V65C182.909 65 184.7 63.2091 184.7 61H180.7ZM180.7 2V61H184.7V2H180.7ZM180.7 2H184.7C184.7 -0.20913 182.909 -2 180.7 -2V2ZM2 2H180.7V-2H2V2ZM185.85 49.25H193.3V45.25H185.85V49.25ZM183.85 22.05V47.25H187.85V22.05H183.85ZM193.3 20.05H185.85V24.05H193.3V20.05ZM197.3 24.05C197.3 21.8409 195.509 20.05 193.3 20.05V24.05V24.05H197.3ZM197.3 45.25V24.05H193.3V45.25H197.3ZM193.3 49.25C195.509 49.25 197.3 47.4591 197.3 45.25H193.3V49.25Z" fill="white" fill-opacity="0.4" mask="url(#path-1-inside-1_316_191)"/>
</svg>
