<svg width="120" height="40" viewBox="0 0 120 40" fill="none" xmlns="http://www.w3.org/2000/svg">
<g clip-path="url(#clip0_778_106)">
<path d="M110.135 0.00013H9.53468C9.16798 0.00013 8.80568 0.00013 8.43995 0.00213C8.1338 0.00413 7.83009 0.00994 7.521 0.01483C6.84951 0.0227318 6.17961 0.0818063 5.5171 0.19154C4.85552 0.303663 4.21467 0.515046 3.61622 0.81854C3.0185 1.1246 2.47235 1.5223 1.99757 1.9972C1.5203 2.47077 1.12246 3.01815 0.81935 3.61829C0.5154 4.21724 0.304641 4.85907 0.19435 5.52161C0.0830109 6.18332 0.0230984 6.85265 0.01515 7.52361C0.00587 7.83021 0.00489 8.13783 0 8.44447V31.5587C0.00489 31.8692 0.00587 32.17 0.01515 32.4806C0.0231008 33.1516 0.0830134 33.8209 0.19435 34.4825C0.304336 35.1455 0.515108 35.7877 0.81935 36.3868C1.12233 36.985 1.52022 37.5302 1.99757 38.0011C2.47054 38.4781 3.01705 38.8761 3.61622 39.1798C4.21467 39.4841 4.85545 39.6968 5.5171 39.8106C6.17972 39.9195 6.84956 39.9786 7.521 39.9874C7.83009 39.9942 8.1338 39.9981 8.43995 39.9981C8.80567 40.0001 9.168 40.0001 9.53468 40.0001H110.135C110.494 40.0001 110.859 40.0001 111.219 39.9981C111.523 39.9981 111.836 39.9942 112.141 39.9874C112.811 39.9791 113.479 39.92 114.141 39.8106C114.804 39.696 115.448 39.4834 116.049 39.1798C116.647 38.8759 117.193 38.478 117.666 38.0011C118.142 37.5284 118.541 36.9836 118.848 36.3868C119.15 35.7872 119.358 35.1451 119.467 34.4825C119.578 33.8208 119.64 33.1516 119.652 32.4806C119.656 32.17 119.656 31.8692 119.656 31.5587C119.664 31.1954 119.664 30.8341 119.664 30.4649V9.53626C119.664 9.17005 119.664 8.80677 119.656 8.44447C119.656 8.13783 119.656 7.83021 119.652 7.52357C119.64 6.85255 119.578 6.18337 119.467 5.52157C119.358 4.85941 119.149 4.21763 118.848 3.61825C118.23 2.41533 117.252 1.43616 116.049 0.81845C115.448 0.515697 114.804 0.30437 114.141 0.19145C113.48 0.0812328 112.811 0.0221378 112.141 0.01469C111.836 0.00981 111.523 0.00395 111.219 0.002C110.859 0 110.494 0.00013 110.135 0.00013Z" fill="black"/>
<path d="M8.44487 39.125C8.14019 39.125 7.84287 39.1211 7.54058 39.1143C6.91436 39.1061 6.2896 39.0516 5.67144 38.9512C5.09503 38.8519 4.53664 38.6673 4.0147 38.4033C3.49754 38.1415 3.02585 37.7983 2.6177 37.3867C2.20364 36.98 1.85891 36.5082 1.59719 35.9902C1.33258 35.4688 1.14945 34.9099 1.05419 34.333C0.951311 33.7131 0.895651 33.0863 0.887687 32.458C0.881347 32.2471 0.873047 31.5449 0.873047 31.5449V8.44434C0.873047 8.44434 0.881887 7.75293 0.887737 7.5498C0.895363 6.92248 0.950699 6.29665 1.05327 5.67773C1.14871 5.09925 1.33197 4.53875 1.59673 4.01563C1.85749 3.49794 2.2003 3.02586 2.61187 2.61768C3.02297 2.20562 3.49617 1.8606 4.01421 1.59521C4.53495 1.33209 5.09228 1.14873 5.66753 1.05127C6.28772 0.949836 6.91465 0.894996 7.54304 0.88721L8.44536 0.875H111.214L112.127 0.8877C112.75 0.895099 113.371 0.94945 113.985 1.05029C114.566 1.14898 115.13 1.33362 115.656 1.59814C116.694 2.13299 117.539 2.97916 118.071 4.01807C118.332 4.53758 118.512 5.09351 118.607 5.66699C118.71 6.29099 118.768 6.92174 118.78 7.5542C118.783 7.8374 118.783 8.1416 118.783 8.44434C118.791 8.81934 118.791 9.17627 118.791 9.53613V30.4648C118.791 30.8281 118.791 31.1826 118.783 31.54C118.783 31.8652 118.783 32.1631 118.779 32.4697C118.768 33.0909 118.711 33.7104 118.608 34.3232C118.515 34.9043 118.333 35.4675 118.068 35.9932C117.805 36.5056 117.462 36.9733 117.053 37.3789C116.644 37.7927 116.172 38.1379 115.653 38.4014C115.128 38.6674 114.566 38.8527 113.985 38.9512C113.367 39.0522 112.742 39.1067 112.116 39.1143C111.823 39.1211 111.517 39.125 111.219 39.125L110.135 39.127L8.44487 39.125Z" fill="white"/>
<path d="M23.3877 17.042C23.3988 16.1741 23.6294 15.323 24.0579 14.5681C24.4863 13.8132 25.0988 13.1789 25.8382 12.7243C25.3685 12.0534 24.7488 11.5013 24.0283 11.1118C23.3078 10.7223 22.5065 10.5062 21.6878 10.4806C19.9416 10.2973 18.2487 11.5255 17.3588 11.5255C16.4518 11.5255 15.0817 10.4988 13.6064 10.5291C12.6521 10.5599 11.7221 10.8374 10.9069 11.3346C10.0918 11.8317 9.41929 12.5315 8.95501 13.3658C6.9439 16.8478 8.44401 21.9652 10.3705 24.7798C11.3344 26.158 12.4609 27.6976 13.9349 27.643C15.3773 27.5831 15.916 26.7232 17.6571 26.7232C19.382 26.7232 19.8874 27.643 21.3914 27.6083C22.9391 27.5831 23.9143 26.2239 24.8444 24.8326C25.5369 23.8506 26.0698 22.7652 26.4234 21.6167C25.5242 21.2364 24.7568 20.5998 24.217 19.7863C23.6771 18.9728 23.3887 18.0184 23.3877 17.042Z" fill="black"/>
<path d="M20.547 8.62989C21.3909 7.61682 21.8066 6.31468 21.706 5C20.4167 5.13541 19.2257 5.75161 18.3704 6.72582C17.9522 7.20174 17.6319 7.75542 17.4279 8.35521C17.2238 8.95499 17.1399 9.58911 17.1811 10.2213C17.826 10.228 18.4639 10.0882 19.047 9.81252C19.63 9.53686 20.1429 9.1325 20.547 8.62989Z" fill="black"/>
<path d="M43.875 21.2686H39.1416L38.0049 24.625H36L40.4834 12.207H42.5664L47.0498 24.625H45.0107L43.875 21.2686ZM39.6318 19.7198H43.3838L41.5342 14.2725H41.4824L39.6318 19.7198Z" fill="black"/>
<path d="M56.7324 20.0984C56.7324 22.9118 55.2266 24.7194 52.9541 24.7194C52.3785 24.7496 51.806 24.617 51.3022 24.3368C50.7984 24.0567 50.3837 23.6403 50.1055 23.1354H50.0625V27.6198H48.2041V15.571H50.0029V17.0769H50.0371C50.3281 16.5744 50.7498 16.1602 51.2574 15.8784C51.7651 15.5965 52.3396 15.4576 52.9199 15.4763C55.2178 15.4763 56.7324 17.2927 56.7324 20.0984ZM54.8223 20.0984C54.8223 18.2654 53.875 17.0603 52.4297 17.0603C51.0098 17.0603 50.0547 18.2907 50.0547 20.0984C50.0547 21.9226 51.0098 23.1443 52.4297 23.1443C53.875 23.1443 54.8223 21.948 54.8223 20.0984Z" fill="black"/>
<path d="M66.6978 20.0984C66.6978 22.9118 65.1914 24.7194 62.919 24.7194C62.3433 24.7496 61.7708 24.617 61.267 24.3368C60.7632 24.0567 60.3485 23.6403 60.0703 23.1354H60.0273V27.6198H58.1689V15.571H59.9678V17.0769H60.002C60.2929 16.5744 60.7146 16.1602 61.2223 15.8784C61.7299 15.5965 62.3044 15.4576 62.8848 15.4763C65.1827 15.4763 66.6978 17.2927 66.6978 20.0984ZM64.7871 20.0984C64.7871 18.2654 63.8399 17.0603 62.3946 17.0603C60.9746 17.0603 60.0196 18.2907 60.0196 20.0984C60.0196 21.9226 60.9746 23.1443 62.3946 23.1443C63.8399 23.1443 64.7871 21.948 64.7871 20.0984Z" fill="black"/>
<path d="M73.2823 21.1651C73.42 22.3965 74.6163 23.2051 76.251 23.2051C77.8174 23.2051 78.9444 22.3965 78.9444 21.2861C78.9444 20.3223 78.2647 19.7451 76.6553 19.3496L75.046 18.9619C72.7657 18.4111 71.7071 17.3447 71.7071 15.6143C71.7071 13.4717 73.5743 12 76.2247 12C78.8497 12 80.6485 13.4717 80.709 15.6143H78.833C78.7207 14.375 77.6963 13.627 76.1993 13.627C74.7022 13.627 73.6778 14.3838 73.6778 15.4854C73.6778 16.3633 74.3321 16.8799 75.9327 17.2754L77.3008 17.6113C79.8487 18.2138 80.9063 19.2373 80.9063 21.0537C80.9063 23.3769 79.0567 24.832 76.1133 24.832C73.3594 24.832 71.5 23.4111 71.3799 21.165L73.2823 21.1651Z" fill="black"/>
<path d="M84.9199 13.4287V15.5713H86.6416V17.043H84.9199V22.0342C84.9199 22.8096 85.2646 23.1709 86.0215 23.1709C86.2259 23.1673 86.4299 23.153 86.6328 23.1279V24.5908C86.2925 24.6544 85.9467 24.6832 85.6006 24.6767C83.7676 24.6767 83.0527 23.9882 83.0527 22.2324V17.043H81.7363V15.5713H83.0527V13.4287H84.9199Z" fill="black"/>
<path d="M87.6377 20.0986C87.6377 17.25 89.3154 15.46 91.9316 15.46C94.5566 15.46 96.2266 17.25 96.2266 20.0986C96.2266 22.9551 94.5654 24.7373 91.9316 24.7373C89.2988 24.7373 87.6377 22.9551 87.6377 20.0986ZM94.333 20.0986C94.333 18.1445 93.4375 16.9912 91.9316 16.9912C90.4258 16.9912 89.5303 18.1533 89.5303 20.0986C89.5303 22.0605 90.4258 23.2051 91.9316 23.2051C93.4375 23.2051 94.333 22.0605 94.333 20.0986Z" fill="black"/>
<path d="M97.7578 15.5709H99.5303V17.1119H99.5733C99.6932 16.6306 99.9752 16.2053 100.372 15.9074C100.768 15.6095 101.255 15.4573 101.751 15.4762C101.965 15.4754 102.179 15.4987 102.388 15.5455V17.2838C102.117 17.2012 101.835 17.1633 101.553 17.1715C101.283 17.1606 101.014 17.2082 100.764 17.311C100.514 17.4139 100.289 17.5697 100.105 17.7675C99.9214 17.9654 99.7824 18.2008 99.698 18.4575C99.6135 18.7141 99.5856 18.986 99.6162 19.2545V24.6246H97.7578L97.7578 15.5709Z" fill="black"/>
<path d="M110.956 21.9658C110.706 23.6094 109.105 24.7373 107.058 24.7373C104.424 24.7373 102.789 22.9726 102.789 20.1416C102.789 17.3018 104.433 15.46 106.979 15.46C109.484 15.46 111.06 17.1807 111.06 19.9258V20.5625H104.665V20.6748C104.636 21.008 104.677 21.3437 104.787 21.6595C104.898 21.9753 105.074 22.2641 105.304 22.5067C105.534 22.7492 105.814 22.94 106.123 23.0663C106.433 23.1926 106.766 23.2516 107.101 23.2393C107.54 23.2804 107.98 23.1787 108.357 22.9492C108.734 22.7198 109.026 22.3749 109.191 21.9658L110.956 21.9658ZM104.674 19.2637H109.2C109.217 18.9641 109.171 18.6643 109.067 18.3831C108.962 18.1018 108.8 17.8453 108.592 17.6295C108.383 17.4138 108.133 17.2434 107.855 17.1292C107.578 17.015 107.279 16.9594 106.979 16.9658C106.677 16.964 106.377 17.0222 106.097 17.1369C105.817 17.2516 105.562 17.4207 105.348 17.6343C105.134 17.848 104.964 18.1019 104.848 18.3816C104.732 18.6613 104.673 18.961 104.674 19.2637Z" fill="black"/>
</g>
<defs>
<clipPath id="clip0_778_106">
<rect width="119.664" height="40" fill="white"/>
</clipPath>
</defs>
</svg>
