<svg width="907" height="631" viewBox="0 0 907 631" fill="none" xmlns="http://www.w3.org/2000/svg">
<path d="M25 1.25H302C315.117 1.25 325.75 11.8832 325.75 25V247C325.75 260.117 315.117 270.75 302 270.75H25C11.8832 270.75 1.25 260.117 1.25 247V25C1.25 11.8832 11.8832 1.25 25 1.25Z" fill="#080908" stroke="#151D15" stroke-width="2.5"/>
<path d="M605 1.25H882C895.117 1.25 905.75 11.8832 905.75 25V247C905.75 260.117 895.117 270.75 882 270.75H605C591.883 270.75 581.25 260.117 581.25 247V25C581.25 11.8832 591.883 1.25 605 1.25Z" fill="#080908" stroke="#151D15" stroke-width="2.5"/>
<path d="M25 360.25H302C315.117 360.25 325.75 370.883 325.75 384V606C325.75 619.117 315.117 629.75 302 629.75H25C11.8832 629.75 1.25 619.117 1.25 606V384C1.25 370.883 11.8832 360.25 25 360.25Z" fill="#080908" stroke="#151D15" stroke-width="2.5"/>
<path d="M605 360.25H882C895.117 360.25 905.75 370.883 905.75 384V606C905.75 619.117 895.117 629.75 882 629.75H605C591.883 629.75 581.25 619.117 581.25 606V384C581.25 370.883 591.883 360.25 605 360.25Z" fill="#080908" stroke="#151D15" stroke-width="2.5"/>
<path d="M164 348.333C158.109 348.333 153.333 353.109 153.333 359C153.333 364.891 158.109 369.667 164 369.667C169.891 369.667 174.667 364.891 174.667 359C174.667 353.109 169.891 348.333 164 348.333ZM162 276.35C162 277.455 162.895 278.35 164 278.35C165.105 278.35 166 277.455 166 276.35H162ZM166 285.05C166 283.945 165.105 283.05 164 283.05C162.895 283.05 162 283.945 162 285.05H166ZM162 293.75C162 294.855 162.895 295.75 164 295.75C165.105 295.75 166 294.855 166 293.75H162ZM166 302.45C166 301.345 165.105 300.45 164 300.45C162.895 300.45 162 301.345 162 302.45H166ZM162 311.15C162 312.255 162.895 313.15 164 313.15C165.105 313.15 166 312.255 166 311.15H162ZM166 319.85C166 318.745 165.105 317.85 164 317.85C162.895 317.85 162 318.745 162 319.85H166ZM162 328.55C162 329.655 162.895 330.55 164 330.55C165.105 330.55 166 329.655 166 328.55H162ZM166 337.25C166 336.145 165.105 335.25 164 335.25C162.895 335.25 162 336.145 162 337.25H166ZM162 345.95C162 347.055 162.895 347.95 164 347.95C165.105 347.95 166 347.055 166 345.95H162ZM166 354.65C166 353.545 165.105 352.65 164 352.65C162.895 352.65 162 353.545 162 354.65H166ZM162 272V276.35H166V272H162ZM162 285.05V293.75H166V285.05H162ZM162 302.45V311.15H166V302.45H162ZM162 319.85V328.55H166V319.85H162ZM162 337.25V345.95H166V337.25H162ZM162 354.65V359H166V354.65H162ZM164 348.333C158.109 348.333 153.333 353.109 153.333 359C153.333 364.891 158.109 369.667 164 369.667C169.891 369.667 174.667 364.891 174.667 359C174.667 353.109 169.891 348.333 164 348.333ZM162 276.35C162 277.455 162.895 278.35 164 278.35C165.105 278.35 166 277.455 166 276.35H162ZM166 285.05C166 283.945 165.105 283.05 164 283.05C162.895 283.05 162 283.945 162 285.05H166ZM162 293.75C162 294.855 162.895 295.75 164 295.75C165.105 295.75 166 294.855 166 293.75H162ZM166 302.45C166 301.345 165.105 300.45 164 300.45C162.895 300.45 162 301.345 162 302.45H166ZM162 311.15C162 312.255 162.895 313.15 164 313.15C165.105 313.15 166 312.255 166 311.15H162ZM166 319.85C166 318.745 165.105 317.85 164 317.85C162.895 317.85 162 318.745 162 319.85H166ZM162 328.55C162 329.655 162.895 330.55 164 330.55C165.105 330.55 166 329.655 166 328.55H162ZM166 337.25C166 336.145 165.105 335.25 164 335.25C162.895 335.25 162 336.145 162 337.25H166ZM162 345.95C162 347.055 162.895 347.95 164 347.95C165.105 347.95 166 347.055 166 345.95H162ZM166 354.65C166 353.545 165.105 352.65 164 352.65C162.895 352.65 162 353.545 162 354.65H166ZM162 272V276.35H166V272H162ZM162 285.05V293.75H166V285.05H162ZM162 302.45V311.15H166V302.45H162ZM162 319.85V328.55H166V319.85H162ZM162 337.25V345.95H166V337.25H162ZM162 354.65V359H166V354.65H162Z" fill="#1D281D"/>
<path d="M744 348.333C738.109 348.333 733.333 353.109 733.333 359C733.333 364.891 738.109 369.667 744 369.667C749.891 369.667 754.667 364.891 754.667 359C754.667 353.109 749.891 348.333 744 348.333ZM742 276.35C742 277.455 742.895 278.35 744 278.35C745.105 278.35 746 277.455 746 276.35H742ZM746 285.05C746 283.945 745.105 283.05 744 283.05C742.895 283.05 742 283.945 742 285.05H746ZM742 293.75C742 294.855 742.895 295.75 744 295.75C745.105 295.75 746 294.855 746 293.75H742ZM746 302.45C746 301.345 745.105 300.45 744 300.45C742.895 300.45 742 301.345 742 302.45H746ZM742 311.15C742 312.255 742.895 313.15 744 313.15C745.105 313.15 746 312.255 746 311.15H742ZM746 319.85C746 318.745 745.105 317.85 744 317.85C742.895 317.85 742 318.745 742 319.85H746ZM742 328.55C742 329.655 742.895 330.55 744 330.55C745.105 330.55 746 329.655 746 328.55H742ZM746 337.25C746 336.145 745.105 335.25 744 335.25C742.895 335.25 742 336.145 742 337.25H746ZM742 345.95C742 347.055 742.895 347.95 744 347.95C745.105 347.95 746 347.055 746 345.95H742ZM746 354.65C746 353.545 745.105 352.65 744 352.65C742.895 352.65 742 353.545 742 354.65H746ZM742 272V276.35H746V272H742ZM742 285.05V293.75H746V285.05H742ZM742 302.45V311.15H746V302.45H742ZM742 319.85V328.55H746V319.85H742ZM742 337.25V345.95H746V337.25H742ZM742 354.65V359H746V354.65H742ZM744 348.333C738.109 348.333 733.333 353.109 733.333 359C733.333 364.891 738.109 369.667 744 369.667C749.891 369.667 754.667 364.891 754.667 359C754.667 353.109 749.891 348.333 744 348.333ZM742 276.35C742 277.455 742.895 278.35 744 278.35C745.105 278.35 746 277.455 746 276.35H742ZM746 285.05C746 283.945 745.105 283.05 744 283.05C742.895 283.05 742 283.945 742 285.05H746ZM742 293.75C742 294.855 742.895 295.75 744 295.75C745.105 295.75 746 294.855 746 293.75H742ZM746 302.45C746 301.345 745.105 300.45 744 300.45C742.895 300.45 742 301.345 742 302.45H746ZM742 311.15C742 312.255 742.895 313.15 744 313.15C745.105 313.15 746 312.255 746 311.15H742ZM746 319.85C746 318.745 745.105 317.85 744 317.85C742.895 317.85 742 318.745 742 319.85H746ZM742 328.55C742 329.655 742.895 330.55 744 330.55C745.105 330.55 746 329.655 746 328.55H742ZM746 337.25C746 336.145 745.105 335.25 744 335.25C742.895 335.25 742 336.145 742 337.25H746ZM742 345.95C742 347.055 742.895 347.95 744 347.95C745.105 347.95 746 347.055 746 345.95H742ZM746 354.65C746 353.545 745.105 352.65 744 352.65C742.895 352.65 742 353.545 742 354.65H746ZM742 272V276.35H746V272H742ZM742 285.05V293.75H746V285.05H742ZM742 302.45V311.15H746V302.45H742ZM742 319.85V328.55H746V319.85H742ZM742 337.25V345.95H746V337.25H742ZM742 354.65V359H746V354.65H742Z" fill="#1D281D"/>
<path d="M437 507.5L437 509.5L439 509.5L439 507.5L437 507.5ZM579.494 170.426C584.699 167.668 586.684 161.212 583.926 156.007C581.168 150.801 574.712 148.817 569.507 151.575C564.301 154.332 562.317 160.788 565.075 165.994C567.833 171.199 574.288 173.184 579.494 170.426ZM437 161L437 159L435 159L435 161L437 161ZM332.857 509.5C333.962 509.5 334.857 508.605 334.857 507.5C334.857 506.396 333.962 505.5 332.857 505.5L332.857 509.5ZM340.572 505.5C339.467 505.5 338.572 506.396 338.572 507.5C338.572 508.605 339.467 509.5 340.572 509.5L340.572 505.5ZM348.286 509.5C349.39 509.5 350.286 508.605 350.286 507.5C350.286 506.396 349.39 505.5 348.286 505.5L348.286 509.5ZM356 505.5C354.896 505.5 354 506.395 354 507.5C354 508.605 354.896 509.5 356 509.5L356 505.5ZM363.714 509.5C364.819 509.5 365.714 508.605 365.714 507.5C365.714 506.395 364.819 505.5 363.714 505.5L363.714 509.5ZM371.429 505.5C370.324 505.5 369.429 506.395 369.429 507.5C369.429 508.605 370.324 509.5 371.429 509.5L371.429 505.5ZM379.143 509.5C380.248 509.5 381.143 508.605 381.143 507.5C381.143 506.395 380.248 505.5 379.143 505.5L379.143 509.5ZM386.857 505.5C385.753 505.5 384.857 506.395 384.857 507.5C384.857 508.604 385.753 509.5 386.857 509.5L386.857 505.5ZM394.571 509.5C395.676 509.5 396.571 508.604 396.571 507.5C396.571 506.395 395.676 505.5 394.571 505.5L394.571 509.5ZM402.286 505.5C401.181 505.5 400.286 506.395 400.286 507.5C400.286 508.604 401.181 509.5 402.286 509.5L402.286 505.5ZM410 509.5C411.105 509.5 412 508.604 412 507.5C412 506.395 411.105 505.5 410 505.5L410 509.5ZM417.714 505.5C416.61 505.5 415.714 506.395 415.714 507.5C415.714 508.604 416.61 509.5 417.714 509.5L417.714 505.5ZM425.429 509.5C426.533 509.5 427.429 508.604 427.429 507.5C427.429 506.395 426.533 505.5 425.429 505.5L425.429 509.5ZM433.143 505.5C432.038 505.5 431.143 506.395 431.143 507.5C431.143 508.604 432.038 509.5 433.143 509.5L433.143 505.5ZM439 503.562C439 502.458 438.105 501.562 437 501.562C435.895 501.562 435 502.458 435 503.562L439 503.562ZM435 495.687C435 496.792 435.895 497.687 437 497.687C438.105 497.687 439 496.792 439 495.687L435 495.687ZM439 487.812C439 486.708 438.105 485.812 437 485.812C435.895 485.812 435 486.708 435 487.812L439 487.812ZM435 479.937C435 481.042 435.895 481.937 437 481.937C438.105 481.937 439 481.042 439 479.937L435 479.937ZM439 472.062C439 470.958 438.105 470.062 437 470.062C435.895 470.062 435 470.958 435 472.062L439 472.062ZM435 464.187C435 465.292 435.895 466.187 437 466.187C438.105 466.187 439 465.292 439 464.187L435 464.187ZM439 456.312C439 455.208 438.105 454.312 437 454.312C435.895 454.312 435 455.208 435 456.312L439 456.312ZM435 448.437C435 449.542 435.895 450.437 437 450.437C438.105 450.437 439 449.542 439 448.437L435 448.437ZM439 440.562C439 439.458 438.105 438.562 437 438.562C435.895 438.562 435 439.458 435 440.562L439 440.562ZM435 432.687C435 433.792 435.895 434.687 437 434.687C438.105 434.687 439 433.792 439 432.687L435 432.687ZM439 424.812C439 423.708 438.105 422.812 437 422.812C435.895 422.812 435 423.708 435 424.812L439 424.812ZM435 416.937C435 418.042 435.895 418.937 437 418.937C438.105 418.937 439 418.042 439 416.937L435 416.937ZM439 409.062C439 407.958 438.105 407.062 437 407.062C435.895 407.062 435 407.958 435 409.062L439 409.062ZM435 401.187C435 402.292 435.895 403.187 437 403.187C438.105 403.187 439 402.292 439 401.187L435 401.187ZM439 393.312C439 392.208 438.105 391.312 437 391.312C435.895 391.312 435 392.208 435 393.312L439 393.312ZM435 385.437C435 386.542 435.895 387.437 437 387.437C438.105 387.437 439 386.542 439 385.437L435 385.437ZM439 377.562C439 376.458 438.105 375.562 437 375.562C435.895 375.562 435 376.458 435 377.562L439 377.562ZM435 369.687C435 370.792 435.895 371.687 437 371.687C438.105 371.687 439 370.792 439 369.687L435 369.687ZM439 361.812C439 360.708 438.105 359.812 437 359.812C435.895 359.812 435 360.708 435 361.812L439 361.812ZM435 353.937C435 355.042 435.895 355.937 437 355.937C438.105 355.937 439 355.042 439 353.937L435 353.937ZM439 346.062C439 344.958 438.105 344.062 437 344.062C435.895 344.062 435 344.958 435 346.062L439 346.062ZM435 338.188C435 339.292 435.895 340.188 437 340.188C438.105 340.188 439 339.292 439 338.188L435 338.188ZM439 330.313C439 329.208 438.105 328.313 437 328.313C435.895 328.313 435 329.208 435 330.313L439 330.313ZM435 322.438C435 323.542 435.895 324.438 437 324.438C438.105 324.438 439 323.542 439 322.438L435 322.438ZM439 314.563C439 313.458 438.105 312.563 437 312.563C435.895 312.563 435 313.458 435 314.563L439 314.563ZM435 306.688C435 307.792 435.895 308.688 437 308.688C438.105 308.688 439 307.792 439 306.688L435 306.688ZM439 298.813C439 297.708 438.105 296.813 437 296.813C435.895 296.813 435 297.708 435 298.813L439 298.813ZM435 290.938C435 292.042 435.895 292.938 437 292.938C438.105 292.938 439 292.042 439 290.938L435 290.938ZM439 283.063C439 281.958 438.105 281.063 437 281.063C435.895 281.063 435 281.958 435 283.063L439 283.063ZM435 275.188C435 276.292 435.895 277.188 437 277.188C438.105 277.188 439 276.292 439 275.188L435 275.188ZM439 267.313C439 266.208 438.105 265.313 437 265.313C435.895 265.313 435 266.208 435 267.313L439 267.313ZM435 259.438C435 260.542 435.895 261.438 437 261.438C438.105 261.438 439 260.542 439 259.438L435 259.438ZM439 251.563C439 250.458 438.105 249.563 437 249.563C435.895 249.563 435 250.458 435 251.563L439 251.563ZM435 243.688C435 244.792 435.895 245.688 437 245.688C438.105 245.688 439 244.792 439 243.688L435 243.688ZM439 235.813C439 234.708 438.105 233.813 437 233.813C435.895 233.813 435 234.708 435 235.813L439 235.813ZM435 227.938C435 229.042 435.895 229.938 437 229.938C438.105 229.938 439 229.042 439 227.938L435 227.938ZM439 220.063C439 218.958 438.105 218.063 437 218.063C435.895 218.063 435 218.958 435 220.063L439 220.063ZM435 212.188C435 213.292 435.895 214.188 437 214.188C438.105 214.188 439 213.292 439 212.188L435 212.188ZM439 204.313C439 203.208 438.105 202.313 437 202.313C435.895 202.313 435 203.208 435 204.313L439 204.313ZM435 196.438C435 197.542 435.895 198.438 437 198.438C438.105 198.438 439 197.542 439 196.438L435 196.438ZM439 188.563C439 187.458 438.105 186.563 437 186.563C435.895 186.563 435 187.458 435 188.563L439 188.563ZM435 180.688C435 181.792 435.895 182.688 437 182.688C438.105 182.688 439 181.792 439 180.688L435 180.688ZM439 172.813C439 171.708 438.105 170.813 437 170.813C435.895 170.813 435 171.708 435 172.813L439 172.813ZM435 164.938C435 166.042 435.895 166.938 437 166.938C438.105 166.938 439 166.042 439 164.938L435 164.938ZM440.819 163C441.924 163 442.819 162.105 442.819 161C442.819 159.896 441.924 159 440.819 159L440.819 163ZM448.458 159C447.354 159 446.458 159.896 446.458 161C446.458 162.105 447.354 163 448.458 163L448.458 159ZM456.097 163C457.202 163 458.097 162.105 458.097 161C458.097 159.896 457.202 159 456.097 159L456.097 163ZM463.736 159C462.632 159 461.736 159.896 461.736 161C461.736 162.105 462.632 163 463.736 163L463.736 159ZM471.375 163C472.48 163 473.375 162.105 473.375 161C473.375 159.896 472.48 159 471.375 159L471.375 163ZM479.014 159C477.909 159 477.014 159.896 477.014 161C477.014 162.105 477.909 163 479.014 163L479.014 159ZM486.653 163C487.757 163 488.653 162.105 488.653 161C488.653 159.896 487.757 159 486.653 159L486.653 163ZM494.292 159C493.187 159 492.292 159.896 492.292 161C492.292 162.105 493.187 163 494.292 163L494.292 159ZM501.931 163C503.035 163 503.931 162.105 503.931 161C503.931 159.896 503.035 159 501.931 159L501.931 163ZM509.57 159C508.465 159 507.57 159.896 507.57 161C507.57 162.105 508.465 163 509.57 163L509.57 159ZM517.208 163C518.313 163 519.208 162.105 519.208 161C519.208 159.896 518.313 159 517.208 159L517.208 163ZM524.847 159C523.743 159 522.847 159.896 522.847 161C522.847 162.105 523.743 163 524.847 163L524.847 159ZM532.486 163C533.591 163 534.486 162.105 534.486 161C534.486 159.896 533.591 159 532.486 159L532.486 163ZM540.125 159C539.021 159 538.125 159.896 538.125 161C538.125 162.105 539.021 163 540.125 163L540.125 159ZM547.764 163C548.869 163 549.764 162.105 549.764 161C549.764 159.896 548.869 159 547.764 159L547.764 163ZM555.403 159C554.298 159 553.403 159.896 553.403 161C553.403 162.105 554.298 163 555.403 163L555.403 159ZM563.042 163C564.146 163 565.042 162.105 565.042 161C565.042 159.896 564.146 159 563.042 159L563.042 163ZM570.681 159C569.576 159 568.681 159.896 568.681 161C568.681 162.105 569.576 163 570.681 163L570.681 159ZM329 509.5L332.857 509.5L332.857 505.5L329 505.5L329 509.5ZM340.572 509.5L348.286 509.5L348.286 505.5L340.572 505.5L340.572 509.5ZM356 509.5L363.714 509.5L363.714 505.5L356 505.5L356 509.5ZM371.429 509.5L379.143 509.5L379.143 505.5L371.429 505.5L371.429 509.5ZM386.857 509.5L394.571 509.5L394.571 505.5L386.857 505.5L386.857 509.5ZM402.286 509.5L410 509.5L410 505.5L402.286 505.5L402.286 509.5ZM417.714 509.5L425.429 509.5L425.429 505.5L417.714 505.5L417.714 509.5ZM433.143 509.5L437 509.5L437 505.5L433.143 505.5L433.143 509.5ZM439 507.5L439 503.562L435 503.562L435 507.5L439 507.5ZM439 495.687L439 487.812L435 487.812L435 495.687L439 495.687ZM439 479.937L439 472.062L435 472.062L435 479.937L439 479.937ZM439 464.187L439 456.312L435 456.312L435 464.187L439 464.187ZM439 448.437L439 440.562L435 440.562L435 448.437L439 448.437ZM439 432.687L439 424.812L435 424.812L435 432.687L439 432.687ZM439 416.937L439 409.062L435 409.062L435 416.937L439 416.937ZM439 401.187L439 393.312L435 393.312L435 401.187L439 401.187ZM439 385.437L439 377.562L435 377.562L435 385.437L439 385.437ZM439 369.687L439 361.812L435 361.812L435 369.687L439 369.687ZM439 353.937L439 346.062L435 346.062L435 353.937L439 353.937ZM439 338.188L439 330.313L435 330.313L435 338.188L439 338.188ZM439 322.438L439 314.563L435 314.563L435 322.438L439 322.438ZM439 306.688L439 298.813L435 298.813L435 306.688L439 306.688ZM439 290.938L439 283.063L435 283.063L435 290.938L439 290.938ZM439 275.188L439 267.313L435 267.313L435 275.188L439 275.188ZM439 259.438L439 251.563L435 251.563L435 259.438L439 259.438ZM439 243.688L439 235.813L435 235.813L435 243.688L439 243.688ZM439 227.938L439 220.063L435 220.063L435 227.938L439 227.938ZM439 212.188L439 204.313L435 204.313L435 212.188L439 212.188ZM439 196.438L439 188.563L435 188.563L435 196.438L439 196.438ZM439 180.688L439 172.813L435 172.813L435 180.688L439 180.688ZM439 164.938L439 161L435 161L435 164.938L439 164.938ZM437 163L440.819 163L440.819 159L437 159L437 163ZM448.458 163L456.097 163L456.097 159L448.458 159L448.458 163ZM463.736 163L471.375 163L471.375 159L463.736 159L463.736 163ZM479.014 163L486.653 163L486.653 159L479.014 159L479.014 163ZM494.292 163L501.931 163L501.931 159L494.292 159L494.292 163ZM509.57 163L517.208 163L517.208 159L509.57 159L509.57 163ZM524.847 163L532.486 163L532.486 159L524.847 159L524.847 163ZM540.125 163L547.764 163L547.764 159L540.125 159L540.125 163ZM555.403 163L563.042 163L563.042 159L555.403 159L555.403 163ZM570.681 163L574.5 163L574.5 159L570.681 159L570.681 163ZM437 507.5L437 509.5L439 509.5L439 507.5L437 507.5ZM579.494 170.426C584.699 167.668 586.684 161.212 583.926 156.007C581.168 150.801 574.712 148.817 569.507 151.575C564.301 154.332 562.317 160.788 565.075 165.994C567.833 171.199 574.288 173.184 579.494 170.426ZM437 161L437 159L435 159L435 161L437 161ZM332.857 509.5C333.962 509.5 334.857 508.605 334.857 507.5C334.857 506.396 333.962 505.5 332.857 505.5L332.857 509.5ZM340.572 505.5C339.467 505.5 338.572 506.396 338.572 507.5C338.572 508.605 339.467 509.5 340.572 509.5L340.572 505.5ZM348.286 509.5C349.39 509.5 350.286 508.605 350.286 507.5C350.286 506.396 349.39 505.5 348.286 505.5L348.286 509.5ZM356 505.5C354.896 505.5 354 506.395 354 507.5C354 508.605 354.896 509.5 356 509.5L356 505.5ZM363.714 509.5C364.819 509.5 365.714 508.605 365.714 507.5C365.714 506.395 364.819 505.5 363.714 505.5L363.714 509.5ZM371.429 505.5C370.324 505.5 369.429 506.395 369.429 507.5C369.429 508.605 370.324 509.5 371.429 509.5L371.429 505.5ZM379.143 509.5C380.248 509.5 381.143 508.605 381.143 507.5C381.143 506.395 380.248 505.5 379.143 505.5L379.143 509.5ZM386.857 505.5C385.753 505.5 384.857 506.395 384.857 507.5C384.857 508.604 385.753 509.5 386.857 509.5L386.857 505.5ZM394.571 509.5C395.676 509.5 396.571 508.604 396.571 507.5C396.571 506.395 395.676 505.5 394.571 505.5L394.571 509.5ZM402.286 505.5C401.181 505.5 400.286 506.395 400.286 507.5C400.286 508.604 401.181 509.5 402.286 509.5L402.286 505.5ZM410 509.5C411.105 509.5 412 508.604 412 507.5C412 506.395 411.105 505.5 410 505.5L410 509.5ZM417.714 505.5C416.61 505.5 415.714 506.395 415.714 507.5C415.714 508.604 416.61 509.5 417.714 509.5L417.714 505.5ZM425.429 509.5C426.533 509.5 427.429 508.604 427.429 507.5C427.429 506.395 426.533 505.5 425.429 505.5L425.429 509.5ZM433.143 505.5C432.038 505.5 431.143 506.395 431.143 507.5C431.143 508.604 432.038 509.5 433.143 509.5L433.143 505.5ZM439 503.562C439 502.458 438.105 501.562 437 501.562C435.895 501.562 435 502.458 435 503.562L439 503.562ZM435 495.687C435 496.792 435.895 497.687 437 497.687C438.105 497.687 439 496.792 439 495.687L435 495.687ZM439 487.812C439 486.708 438.105 485.812 437 485.812C435.895 485.812 435 486.708 435 487.812L439 487.812ZM435 479.937C435 481.042 435.895 481.937 437 481.937C438.105 481.937 439 481.042 439 479.937L435 479.937ZM439 472.062C439 470.958 438.105 470.062 437 470.062C435.895 470.062 435 470.958 435 472.062L439 472.062ZM435 464.187C435 465.292 435.895 466.187 437 466.187C438.105 466.187 439 465.292 439 464.187L435 464.187ZM439 456.312C439 455.208 438.105 454.312 437 454.312C435.895 454.312 435 455.208 435 456.312L439 456.312ZM435 448.437C435 449.542 435.895 450.437 437 450.437C438.105 450.437 439 449.542 439 448.437L435 448.437ZM439 440.562C439 439.458 438.105 438.562 437 438.562C435.895 438.562 435 439.458 435 440.562L439 440.562ZM435 432.687C435 433.792 435.895 434.687 437 434.687C438.105 434.687 439 433.792 439 432.687L435 432.687ZM439 424.812C439 423.708 438.105 422.812 437 422.812C435.895 422.812 435 423.708 435 424.812L439 424.812ZM435 416.937C435 418.042 435.895 418.937 437 418.937C438.105 418.937 439 418.042 439 416.937L435 416.937ZM439 409.062C439 407.958 438.105 407.062 437 407.062C435.895 407.062 435 407.958 435 409.062L439 409.062ZM435 401.187C435 402.292 435.895 403.187 437 403.187C438.105 403.187 439 402.292 439 401.187L435 401.187ZM439 393.312C439 392.208 438.105 391.312 437 391.312C435.895 391.312 435 392.208 435 393.312L439 393.312ZM435 385.437C435 386.542 435.895 387.437 437 387.437C438.105 387.437 439 386.542 439 385.437L435 385.437ZM439 377.562C439 376.458 438.105 375.562 437 375.562C435.895 375.562 435 376.458 435 377.562L439 377.562ZM435 369.687C435 370.792 435.895 371.687 437 371.687C438.105 371.687 439 370.792 439 369.687L435 369.687ZM439 361.812C439 360.708 438.105 359.812 437 359.812C435.895 359.812 435 360.708 435 361.812L439 361.812ZM435 353.937C435 355.042 435.895 355.937 437 355.937C438.105 355.937 439 355.042 439 353.937L435 353.937ZM439 346.062C439 344.958 438.105 344.062 437 344.062C435.895 344.062 435 344.958 435 346.062L439 346.062ZM435 338.188C435 339.292 435.895 340.188 437 340.188C438.105 340.188 439 339.292 439 338.188L435 338.188ZM439 330.313C439 329.208 438.105 328.313 437 328.313C435.895 328.313 435 329.208 435 330.313L439 330.313ZM435 322.438C435 323.542 435.895 324.438 437 324.438C438.105 324.438 439 323.542 439 322.438L435 322.438ZM439 314.563C439 313.458 438.105 312.563 437 312.563C435.895 312.563 435 313.458 435 314.563L439 314.563ZM435 306.688C435 307.792 435.895 308.688 437 308.688C438.105 308.688 439 307.792 439 306.688L435 306.688ZM439 298.813C439 297.708 438.105 296.813 437 296.813C435.895 296.813 435 297.708 435 298.813L439 298.813ZM435 290.938C435 292.042 435.895 292.938 437 292.938C438.105 292.938 439 292.042 439 290.938L435 290.938ZM439 283.063C439 281.958 438.105 281.063 437 281.063C435.895 281.063 435 281.958 435 283.063L439 283.063ZM435 275.188C435 276.292 435.895 277.188 437 277.188C438.105 277.188 439 276.292 439 275.188L435 275.188ZM439 267.313C439 266.208 438.105 265.313 437 265.313C435.895 265.313 435 266.208 435 267.313L439 267.313ZM435 259.438C435 260.542 435.895 261.438 437 261.438C438.105 261.438 439 260.542 439 259.438L435 259.438ZM439 251.563C439 250.458 438.105 249.563 437 249.563C435.895 249.563 435 250.458 435 251.563L439 251.563ZM435 243.688C435 244.792 435.895 245.688 437 245.688C438.105 245.688 439 244.792 439 243.688L435 243.688ZM439 235.813C439 234.708 438.105 233.813 437 233.813C435.895 233.813 435 234.708 435 235.813L439 235.813ZM435 227.938C435 229.042 435.895 229.938 437 229.938C438.105 229.938 439 229.042 439 227.938L435 227.938ZM439 220.063C439 218.958 438.105 218.063 437 218.063C435.895 218.063 435 218.958 435 220.063L439 220.063ZM435 212.188C435 213.292 435.895 214.188 437 214.188C438.105 214.188 439 213.292 439 212.188L435 212.188ZM439 204.313C439 203.208 438.105 202.313 437 202.313C435.895 202.313 435 203.208 435 204.313L439 204.313ZM435 196.438C435 197.542 435.895 198.438 437 198.438C438.105 198.438 439 197.542 439 196.438L435 196.438ZM439 188.563C439 187.458 438.105 186.563 437 186.563C435.895 186.563 435 187.458 435 188.563L439 188.563ZM435 180.688C435 181.792 435.895 182.688 437 182.688C438.105 182.688 439 181.792 439 180.688L435 180.688ZM439 172.813C439 171.708 438.105 170.813 437 170.813C435.895 170.813 435 171.708 435 172.813L439 172.813ZM435 164.938C435 166.042 435.895 166.938 437 166.938C438.105 166.938 439 166.042 439 164.938L435 164.938ZM440.819 163C441.924 163 442.819 162.105 442.819 161C442.819 159.896 441.924 159 440.819 159L440.819 163ZM448.458 159C447.354 159 446.458 159.896 446.458 161C446.458 162.105 447.354 163 448.458 163L448.458 159ZM456.097 163C457.202 163 458.097 162.105 458.097 161C458.097 159.896 457.202 159 456.097 159L456.097 163ZM463.736 159C462.632 159 461.736 159.896 461.736 161C461.736 162.105 462.632 163 463.736 163L463.736 159ZM471.375 163C472.48 163 473.375 162.105 473.375 161C473.375 159.896 472.48 159 471.375 159L471.375 163ZM479.014 159C477.909 159 477.014 159.896 477.014 161C477.014 162.105 477.909 163 479.014 163L479.014 159ZM486.653 163C487.757 163 488.653 162.105 488.653 161C488.653 159.896 487.757 159 486.653 159L486.653 163ZM494.292 159C493.187 159 492.292 159.896 492.292 161C492.292 162.105 493.187 163 494.292 163L494.292 159ZM501.931 163C503.035 163 503.931 162.105 503.931 161C503.931 159.896 503.035 159 501.931 159L501.931 163ZM509.57 159C508.465 159 507.57 159.896 507.57 161C507.57 162.105 508.465 163 509.57 163L509.57 159ZM517.208 163C518.313 163 519.208 162.105 519.208 161C519.208 159.896 518.313 159 517.208 159L517.208 163ZM524.847 159C523.743 159 522.847 159.896 522.847 161C522.847 162.105 523.743 163 524.847 163L524.847 159ZM532.486 163C533.591 163 534.486 162.105 534.486 161C534.486 159.896 533.591 159 532.486 159L532.486 163ZM540.125 159C539.021 159 538.125 159.896 538.125 161C538.125 162.105 539.021 163 540.125 163L540.125 159ZM547.764 163C548.869 163 549.764 162.105 549.764 161C549.764 159.896 548.869 159 547.764 159L547.764 163ZM555.403 159C554.298 159 553.403 159.896 553.403 161C553.403 162.105 554.298 163 555.403 163L555.403 159ZM563.042 163C564.146 163 565.042 162.105 565.042 161C565.042 159.896 564.146 159 563.042 159L563.042 163ZM570.681 159C569.576 159 568.681 159.896 568.681 161C568.681 162.105 569.576 163 570.681 163L570.681 159ZM329 509.5L332.857 509.5L332.857 505.5L329 505.5L329 509.5ZM340.572 509.5L348.286 509.5L348.286 505.5L340.572 505.5L340.572 509.5ZM356 509.5L363.714 509.5L363.714 505.5L356 505.5L356 509.5ZM371.429 509.5L379.143 509.5L379.143 505.5L371.429 505.5L371.429 509.5ZM386.857 509.5L394.571 509.5L394.571 505.5L386.857 505.5L386.857 509.5ZM402.286 509.5L410 509.5L410 505.5L402.286 505.5L402.286 509.5ZM417.714 509.5L425.429 509.5L425.429 505.5L417.714 505.5L417.714 509.5ZM433.143 509.5L437 509.5L437 505.5L433.143 505.5L433.143 509.5ZM439 507.5L439 503.562L435 503.562L435 507.5L439 507.5ZM439 495.687L439 487.812L435 487.812L435 495.687L439 495.687ZM439 479.937L439 472.062L435 472.062L435 479.937L439 479.937ZM439 464.187L439 456.312L435 456.312L435 464.187L439 464.187ZM439 448.437L439 440.562L435 440.562L435 448.437L439 448.437ZM439 432.687L439 424.812L435 424.812L435 432.687L439 432.687ZM439 416.937L439 409.062L435 409.062L435 416.937L439 416.937ZM439 401.187L439 393.312L435 393.312L435 401.187L439 401.187ZM439 385.437L439 377.562L435 377.562L435 385.437L439 385.437ZM439 369.687L439 361.812L435 361.812L435 369.687L439 369.687ZM439 353.937L439 346.062L435 346.062L435 353.937L439 353.937ZM439 338.188L439 330.313L435 330.313L435 338.188L439 338.188ZM439 322.438L439 314.563L435 314.563L435 322.438L439 322.438ZM439 306.688L439 298.813L435 298.813L435 306.688L439 306.688ZM439 290.938L439 283.063L435 283.063L435 290.938L439 290.938ZM439 275.188L439 267.313L435 267.313L435 275.188L439 275.188ZM439 259.438L439 251.563L435 251.563L435 259.438L439 259.438ZM439 243.688L439 235.813L435 235.813L435 243.688L439 243.688ZM439 227.938L439 220.063L435 220.063L435 227.938L439 227.938ZM439 212.188L439 204.313L435 204.313L435 212.188L439 212.188ZM439 196.438L439 188.563L435 188.563L435 196.438L439 196.438ZM439 180.688L439 172.813L435 172.813L435 180.688L439 180.688ZM439 164.938L439 161L435 161L435 164.938L439 164.938ZM437 163L440.819 163L440.819 159L437 159L437 163ZM448.458 163L456.097 163L456.097 159L448.458 159L448.458 163ZM463.736 163L471.375 163L471.375 159L463.736 159L463.736 163ZM479.014 163L486.653 163L486.653 159L479.014 159L479.014 163ZM494.292 163L501.931 163L501.931 159L494.292 159L494.292 163ZM509.57 163L517.208 163L517.208 159L509.57 159L509.57 163ZM524.847 163L532.486 163L532.486 159L524.847 159L524.847 163ZM540.125 163L547.764 163L547.764 159L540.125 159L540.125 163ZM555.403 163L563.042 163L563.042 159L555.403 159L555.403 163ZM570.681 163L574.5 163L574.5 159L570.681 159L570.681 163Z" fill="#1D281D"/>
</svg>
