<svg width="135" height="40" viewBox="0 0 135 40" fill="none" xmlns="http://www.w3.org/2000/svg">
<g clip-path="url(#clip0_781_142)">
<path d="M130 0H5C2.23858 0 0 2.23858 0 5V35C0 37.7614 2.23858 40 5 40H130C132.761 40 135 37.7614 135 35V5C135 2.23858 132.761 0 130 0Z" fill="black"/>
<path d="M130 0.8C132.3 0.8 134.2 2.7 134.2 5V35C134.2 37.3 132.3 39.2 130 39.2H5C2.7 39.2 0.8 37.3 0.8 35V5C0.8 2.7 2.7 0.8 5 0.8H130ZM130 0H5C2.2 0 0 2.3 0 5V35C0 37.8 2.2 40 5 40H130C132.7 40 135 37.8 135 35V5C135 2.3 132.7 0 130 0Z" fill="#A6A6A6"/>
<path d="M68.0996 16.2C65.6996 16.2 63.7996 18 63.7996 20.5C63.7996 23 65.6996 24.8 68.0996 24.8C70.4996 24.8 72.3996 23 72.3996 20.5C72.3996 18 70.4996 16.2 68.0996 16.2ZM68.0996 23C66.7996 23 65.6996 21.9 65.6996 20.4C65.6996 18.9 66.7996 17.8 68.0996 17.8C69.3996 17.8 70.4996 18.8 70.4996 20.4C70.4996 22 69.3996 23 68.0996 23ZM58.7996 16.2C56.3996 16.2 54.4996 18 54.4996 20.5C54.4996 23 56.3996 24.8 58.7996 24.8C61.1996 24.8 63.0996 23 63.0996 20.5C63.0996 18 61.1996 16.2 58.7996 16.2ZM58.7996 23C57.4996 23 56.3996 21.9 56.3996 20.4C56.3996 18.9 57.4996 17.8 58.7996 17.8C60.0996 17.8 61.1996 18.8 61.1996 20.4C61.1996 22 60.0996 23 58.7996 23ZM47.6996 17.5V19.3H51.9996C51.8996 20.3 51.4996 21.1 50.9996 21.6C50.4996 22.1 49.3996 22.9 47.6996 22.9C44.9996 22.9 42.9996 20.8 42.9996 18.1C42.9996 15.4 45.0996 13.3 47.6996 13.3C50.2996 13.3 50.1996 13.9 50.9996 14.6L52.2996 13.3C51.1996 12.3 49.7996 11.5 47.7996 11.5C44.1996 11.5 41.0996 14.5 41.0996 18.1C41.0996 21.7 44.1996 24.7 47.7996 24.7C51.3996 24.7 51.1996 24.1 52.3996 22.8C53.5996 21.6 53.9996 19.9 53.9996 18.6C53.9996 17.3 53.9996 17.8 53.9996 17.5H47.8996H47.6996ZM93.0996 18.9C92.6996 17.9 91.6996 16.2 89.4996 16.2C87.2996 16.2 85.4996 17.9 85.4996 20.5C85.4996 23.1 87.2996 24.8 89.6996 24.8C92.0996 24.8 92.7996 23.6 93.1996 22.9L91.7996 21.9C91.2996 22.6 90.6996 23.1 89.6996 23.1C88.6996 23.1 88.0996 22.7 87.5996 21.8L93.2996 19.4L93.0996 18.9ZM87.2996 20.3C87.2996 18.7 88.5996 17.8 89.4996 17.8C90.3996 17.8 90.8996 18.2 91.0996 18.7L87.2996 20.3ZM82.5996 24.4H84.4996V11.9H82.5996V24.4ZM79.5996 17.2C79.1996 16.7 78.3996 16.2 77.3996 16.2C75.2996 16.2 73.2996 18.1 73.2996 20.5C73.2996 22.9 75.1996 24.7 77.3996 24.7C79.5996 24.7 79.1996 24.2 79.5996 23.7V24.3C79.5996 25.9 78.6996 26.8 77.2996 26.8C75.8996 26.8 75.3996 26 75.1996 25.3L73.5996 26C74.0996 27.1 75.2996 28.5 77.3996 28.5C79.4996 28.5 81.3996 27.2 81.3996 24.1V16.5H79.5996V17.2ZM77.3996 23C76.0996 23 74.9996 21.9 74.9996 20.4C74.9996 18.9 76.0996 17.8 77.3996 17.8C78.6996 17.8 79.6996 18.9 79.6996 20.4C79.6996 21.9 78.6996 23 77.3996 23ZM101.8 11.9H97.2996V24.4H99.1996V19.7H101.8C103.9 19.7 105.9 18.2 105.9 15.8C105.9 13.4 103.9 11.9 101.8 11.9ZM101.9 18H99.1996V13.7H101.9C103.3 13.7 104.1 14.9 104.1 15.8C104.1 16.7 103.3 17.9 101.9 17.9V18ZM113.4 16.2C112 16.2 110.6 16.8 110.1 18.1L111.8 18.8C112.2 18.1 112.8 17.9 113.5 17.9C114.2 17.9 115.4 18.5 115.5 19.5C115.2 19.5 114.4 19.1 113.6 19.1C111.8 19.1 110 20.1 110 21.9C110 23.7 111.5 24.7 113.1 24.7C114.7 24.7 115 24.1 115.5 23.5V24.5H117.3V19.7C117.3 17.5 115.6 16.2 113.5 16.2H113.4ZM113.2 23C112.6 23 111.7 22.7 111.7 21.9C111.7 21.1 112.8 20.6 113.7 20.6C114.6 20.6 114.9 20.8 115.4 21C115.3 22.2 114.3 23 113.2 23ZM123.7 16.5L121.6 21.9L119.4 16.5H117.4L120.7 24.1L118.8 28.3H120.7L125.8 16.5H123.7ZM106.9 24.4H108.8V11.9H106.9V24.4Z" fill="white"/>
<path d="M20.6996 19.4004L10.0996 30.7004C10.3996 31.9004 11.4996 32.8004 12.8996 32.8004C14.2996 32.8004 13.8996 32.7004 14.3996 32.4004L26.3996 25.5004L20.7996 19.4004H20.6996Z" fill="#EA4335"/>
<path d="M31.5 17.5L26.3 14.5L20.5 19.7L26.3 25.5L31.4 22.5C32.3 22 32.9 21.1 32.9 20C32.9 18.9 32.3 18 31.4 17.5H31.5Z" fill="#FBBC04"/>
<path d="M10.0996 9.2998C10.0996 9.4998 10.0996 9.7998 10.0996 9.9998V29.9998C10.0996 30.2998 10.0996 30.4998 10.0996 30.6998L21.0996 19.6998L10.0996 9.2998Z" fill="#4285F4"/>
<path d="M20.8 20.0002L26.3 14.5002L14.3 7.6002C13.9 7.3002 13.4 7.2002 12.8 7.2002C11.5 7.2002 10.3 8.1002 10 9.3002L20.7 20.0002H20.8Z" fill="#34A853"/>
</g>
<defs>
<clipPath id="clip0_781_142">
<rect width="135" height="40" fill="white"/>
</clipPath>
</defs>
</svg>
