<svg width="340" height="1349" viewBox="0 0 340 1349" fill="none" xmlns="http://www.w3.org/2000/svg">
<path d="M25 719.25H314.777C327.893 719.25 338.527 729.883 338.527 743V965C338.527 978.117 327.893 988.75 314.777 988.75H25C11.8833 988.75 1.25 978.117 1.25 965V743C1.25 729.883 11.8832 719.25 25 719.25Z" fill="#080908" stroke="#151D15" stroke-width="2.5"/>
<path d="M25 1078.25H314.777C327.893 1078.25 338.527 1088.88 338.527 1102V1324C338.527 1337.12 327.893 1347.75 314.777 1347.75H25C11.8833 1347.75 1.25 1337.12 1.25 1324V1102C1.25 1088.88 11.8832 1078.25 25 1078.25Z" fill="#080908" stroke="#151D15" stroke-width="2.5"/>
<path d="M170.408 1066.33C164.517 1066.33 159.741 1071.11 159.741 1077C159.741 1082.89 164.517 1087.67 170.408 1087.67C176.299 1087.67 181.074 1082.89 181.074 1077C181.074 1071.11 176.299 1066.33 170.408 1066.33ZM168.408 994.35C168.408 995.455 169.303 996.35 170.408 996.35C171.512 996.35 172.408 995.455 172.408 994.35H168.408ZM172.408 1003.05C172.408 1001.95 171.512 1001.05 170.408 1001.05C169.303 1001.05 168.408 1001.95 168.408 1003.05H172.408ZM168.408 1011.75C168.408 1012.85 169.303 1013.75 170.408 1013.75C171.512 1013.75 172.408 1012.85 172.408 1011.75H168.408ZM172.408 1020.45C172.408 1019.35 171.512 1018.45 170.408 1018.45C169.303 1018.45 168.408 1019.35 168.408 1020.45H172.408ZM168.408 1029.15C168.408 1030.25 169.303 1031.15 170.408 1031.15C171.512 1031.15 172.408 1030.25 172.408 1029.15H168.408ZM172.408 1037.85C172.408 1036.75 171.512 1035.85 170.408 1035.85C169.303 1035.85 168.408 1036.75 168.408 1037.85H172.408ZM168.408 1046.55C168.408 1047.65 169.303 1048.55 170.408 1048.55C171.512 1048.55 172.408 1047.65 172.408 1046.55H168.408ZM172.408 1055.25C172.408 1054.15 171.512 1053.25 170.408 1053.25C169.303 1053.25 168.408 1054.15 168.408 1055.25H172.408ZM168.408 1063.95C168.408 1065.05 169.303 1065.95 170.408 1065.95C171.512 1065.95 172.408 1065.05 172.408 1063.95H168.408ZM172.408 1072.65C172.408 1071.55 171.512 1070.65 170.408 1070.65C169.303 1070.65 168.408 1071.55 168.408 1072.65H172.408ZM168.408 990V994.35H172.408V990H168.408ZM168.408 1003.05V1011.75H172.408V1003.05H168.408ZM168.408 1020.45V1029.15H172.408V1020.45H168.408ZM168.408 1037.85V1046.55H172.408V1037.85H168.408ZM168.408 1055.25V1063.95H172.408V1055.25H168.408ZM168.408 1072.65V1077H172.408V1072.65H168.408ZM170.408 1066.33C164.517 1066.33 159.741 1071.11 159.741 1077C159.741 1082.89 164.517 1087.67 170.408 1087.67C176.299 1087.67 181.074 1082.89 181.074 1077C181.074 1071.11 176.299 1066.33 170.408 1066.33ZM168.408 994.35C168.408 995.455 169.303 996.35 170.408 996.35C171.512 996.35 172.408 995.455 172.408 994.35H168.408ZM172.408 1003.05C172.408 1001.95 171.512 1001.05 170.408 1001.05C169.303 1001.05 168.408 1001.95 168.408 1003.05H172.408ZM168.408 1011.75C168.408 1012.85 169.303 1013.75 170.408 1013.75C171.512 1013.75 172.408 1012.85 172.408 1011.75H168.408ZM172.408 1020.45C172.408 1019.35 171.512 1018.45 170.408 1018.45C169.303 1018.45 168.408 1019.35 168.408 1020.45H172.408ZM168.408 1029.15C168.408 1030.25 169.303 1031.15 170.408 1031.15C171.512 1031.15 172.408 1030.25 172.408 1029.15H168.408ZM172.408 1037.85C172.408 1036.75 171.512 1035.85 170.408 1035.85C169.303 1035.85 168.408 1036.75 168.408 1037.85H172.408ZM168.408 1046.55C168.408 1047.65 169.303 1048.55 170.408 1048.55C171.512 1048.55 172.408 1047.65 172.408 1046.55H168.408ZM172.408 1055.25C172.408 1054.15 171.512 1053.25 170.408 1053.25C169.303 1053.25 168.408 1054.15 168.408 1055.25H172.408ZM168.408 1063.95C168.408 1065.05 169.303 1065.95 170.408 1065.95C171.512 1065.95 172.408 1065.05 172.408 1063.95H168.408ZM172.408 1072.65C172.408 1071.55 171.512 1070.65 170.408 1070.65C169.303 1070.65 168.408 1071.55 168.408 1072.65H172.408ZM168.408 990V994.35H172.408V990H168.408ZM168.408 1003.05V1011.75H172.408V1003.05H168.408ZM168.408 1020.45V1029.15H172.408V1020.45H168.408ZM168.408 1037.85V1046.55H172.408V1037.85H168.408ZM168.408 1055.25V1063.95H172.408V1055.25H168.408ZM168.408 1072.65V1077H172.408V1072.65H168.408Z" fill="#1D281D"/>
<path d="M25 1.25H314.777C327.893 1.25 338.527 11.8832 338.527 25V247C338.527 260.117 327.893 270.75 314.777 270.75H25C11.8833 270.75 1.25 260.117 1.25 247V25C1.25 11.8832 11.8832 1.25 25 1.25Z" fill="#080908" stroke="#151D15" stroke-width="2.5"/>
<path d="M25 360.25H314.777C327.893 360.25 338.527 370.883 338.527 384V606C338.527 619.117 327.893 629.75 314.777 629.75H25C11.8833 629.75 1.25 619.117 1.25 606V384C1.25 370.883 11.8832 360.25 25 360.25Z" fill="#080908" stroke="#151D15" stroke-width="2.5"/>
<path d="M170.408 348.333C164.517 348.333 159.741 353.109 159.741 359C159.741 364.891 164.517 369.667 170.408 369.667C176.299 369.667 181.074 364.891 181.074 359C181.074 353.109 176.299 348.333 170.408 348.333ZM168.408 276.35C168.408 277.455 169.303 278.35 170.408 278.35C171.512 278.35 172.408 277.455 172.408 276.35H168.408ZM172.408 285.05C172.408 283.945 171.512 283.05 170.408 283.05C169.303 283.05 168.408 283.945 168.408 285.05H172.408ZM168.408 293.75C168.408 294.855 169.303 295.75 170.408 295.75C171.512 295.75 172.408 294.855 172.408 293.75H168.408ZM172.408 302.45C172.408 301.345 171.512 300.45 170.408 300.45C169.303 300.45 168.408 301.345 168.408 302.45H172.408ZM168.408 311.15C168.408 312.255 169.303 313.15 170.408 313.15C171.512 313.15 172.408 312.255 172.408 311.15H168.408ZM172.408 319.85C172.408 318.745 171.512 317.85 170.408 317.85C169.303 317.85 168.408 318.745 168.408 319.85H172.408ZM168.408 328.55C168.408 329.655 169.303 330.55 170.408 330.55C171.512 330.55 172.408 329.655 172.408 328.55H168.408ZM172.408 337.25C172.408 336.145 171.512 335.25 170.408 335.25C169.303 335.25 168.408 336.145 168.408 337.25H172.408ZM168.408 345.95C168.408 347.055 169.303 347.95 170.408 347.95C171.512 347.95 172.408 347.055 172.408 345.95H168.408ZM172.408 354.65C172.408 353.545 171.512 352.65 170.408 352.65C169.303 352.65 168.408 353.545 168.408 354.65H172.408ZM168.408 272V276.35H172.408V272H168.408ZM168.408 285.05V293.75H172.408V285.05H168.408ZM168.408 302.45V311.15H172.408V302.45H168.408ZM168.408 319.85V328.55H172.408V319.85H168.408ZM168.408 337.25V345.95H172.408V337.25H168.408ZM168.408 354.65V359H172.408V354.65H168.408ZM170.408 348.333C164.517 348.333 159.741 353.109 159.741 359C159.741 364.891 164.517 369.667 170.408 369.667C176.299 369.667 181.074 364.891 181.074 359C181.074 353.109 176.299 348.333 170.408 348.333ZM168.408 276.35C168.408 277.455 169.303 278.35 170.408 278.35C171.512 278.35 172.408 277.455 172.408 276.35H168.408ZM172.408 285.05C172.408 283.945 171.512 283.05 170.408 283.05C169.303 283.05 168.408 283.945 168.408 285.05H172.408ZM168.408 293.75C168.408 294.855 169.303 295.75 170.408 295.75C171.512 295.75 172.408 294.855 172.408 293.75H168.408ZM172.408 302.45C172.408 301.345 171.512 300.45 170.408 300.45C169.303 300.45 168.408 301.345 168.408 302.45H172.408ZM168.408 311.15C168.408 312.255 169.303 313.15 170.408 313.15C171.512 313.15 172.408 312.255 172.408 311.15H168.408ZM172.408 319.85C172.408 318.745 171.512 317.85 170.408 317.85C169.303 317.85 168.408 318.745 168.408 319.85H172.408ZM168.408 328.55C168.408 329.655 169.303 330.55 170.408 330.55C171.512 330.55 172.408 329.655 172.408 328.55H168.408ZM172.408 337.25C172.408 336.145 171.512 335.25 170.408 335.25C169.303 335.25 168.408 336.145 168.408 337.25H172.408ZM168.408 345.95C168.408 347.055 169.303 347.95 170.408 347.95C171.512 347.95 172.408 347.055 172.408 345.95H168.408ZM172.408 354.65C172.408 353.545 171.512 352.65 170.408 352.65C169.303 352.65 168.408 353.545 168.408 354.65H172.408ZM168.408 272V276.35H172.408V272H168.408ZM168.408 285.05V293.75H172.408V285.05H168.408ZM168.408 302.45V311.15H172.408V302.45H168.408ZM168.408 319.85V328.55H172.408V319.85H168.408ZM168.408 337.25V345.95H172.408V337.25H168.408ZM168.408 354.65V359H172.408V354.65H168.408Z" fill="#1D281D"/>
<path d="M170 707.333C164.109 707.333 159.333 712.109 159.333 718C159.333 723.891 164.109 728.667 170 728.667C175.891 728.667 180.667 723.891 180.667 718C180.667 712.109 175.891 707.333 170 707.333ZM168 635.35C168 636.455 168.895 637.35 170 637.35C171.105 637.35 172 636.455 172 635.35H168ZM172 644.05C172 642.945 171.105 642.05 170 642.05C168.895 642.05 168 642.945 168 644.05H172ZM168 652.75C168 653.855 168.895 654.75 170 654.75C171.105 654.75 172 653.855 172 652.75H168ZM172 661.45C172 660.345 171.105 659.45 170 659.45C168.895 659.45 168 660.345 168 661.45H172ZM168 670.15C168 671.255 168.895 672.15 170 672.15C171.105 672.15 172 671.255 172 670.15H168ZM172 678.85C172 677.745 171.105 676.85 170 676.85C168.895 676.85 168 677.745 168 678.85H172ZM168 687.55C168 688.655 168.895 689.55 170 689.55C171.105 689.55 172 688.655 172 687.55H168ZM172 696.25C172 695.145 171.105 694.25 170 694.25C168.895 694.25 168 695.145 168 696.25H172ZM168 704.95C168 706.055 168.895 706.95 170 706.95C171.105 706.95 172 706.055 172 704.95H168ZM172 713.65C172 712.545 171.105 711.65 170 711.65C168.895 711.65 168 712.545 168 713.65H172ZM168 631V635.35H172V631H168ZM168 644.05V652.75H172V644.05H168ZM168 661.45V670.15H172V661.45H168ZM168 678.85V687.55H172V678.85H168ZM168 696.25V704.95H172V696.25H168ZM168 713.65V718H172V713.65H168ZM170 707.333C164.109 707.333 159.333 712.109 159.333 718C159.333 723.891 164.109 728.667 170 728.667C175.891 728.667 180.667 723.891 180.667 718C180.667 712.109 175.891 707.333 170 707.333ZM168 635.35C168 636.455 168.895 637.35 170 637.35C171.105 637.35 172 636.455 172 635.35H168ZM172 644.05C172 642.945 171.105 642.05 170 642.05C168.895 642.05 168 642.945 168 644.05H172ZM168 652.75C168 653.855 168.895 654.75 170 654.75C171.105 654.75 172 653.855 172 652.75H168ZM172 661.45C172 660.345 171.105 659.45 170 659.45C168.895 659.45 168 660.345 168 661.45H172ZM168 670.15C168 671.255 168.895 672.15 170 672.15C171.105 672.15 172 671.255 172 670.15H168ZM172 678.85C172 677.745 171.105 676.85 170 676.85C168.895 676.85 168 677.745 168 678.85H172ZM168 687.55C168 688.655 168.895 689.55 170 689.55C171.105 689.55 172 688.655 172 687.55H168ZM172 696.25C172 695.145 171.105 694.25 170 694.25C168.895 694.25 168 695.145 168 696.25H172ZM168 704.95C168 706.055 168.895 706.95 170 706.95C171.105 706.95 172 706.055 172 704.95H168ZM172 713.65C172 712.545 171.105 711.65 170 711.65C168.895 711.65 168 712.545 168 713.65H172ZM168 631V635.35H172V631H168ZM168 644.05V652.75H172V644.05H168ZM168 661.45V670.15H172V661.45H168ZM168 678.85V687.55H172V678.85H168ZM168 696.25V704.95H172V696.25H168ZM168 713.65V718H172V713.65H168Z" fill="#1D281D"/>
</svg>
