<svg width="1053" height="172" viewBox="0 0 1053 172" fill="none" xmlns="http://www.w3.org/2000/svg">
<path d="M25 1.25H264C277.117 1.25 287.75 11.8832 287.75 25V147C287.75 160.117 277.117 170.75 264 170.75H25C11.8832 170.75 1.25 160.117 1.25 147V25C1.25 11.8832 11.8832 1.25 25 1.25Z" fill="#080908" stroke="#151D15" stroke-width="2.5"/>
<path d="M407 1.25H646C659.117 1.25 669.75 11.8832 669.75 25V147C669.75 160.117 659.117 170.75 646 170.75H407C393.883 170.75 383.25 160.117 383.25 147V25C383.25 11.8832 393.883 1.25 407 1.25Z" fill="#080908" stroke="#151D15" stroke-width="2.5"/>
<path d="M789 1.25H1028C1041.12 1.25 1051.75 11.8832 1051.75 25V147C1051.75 160.117 1041.12 170.75 1028 170.75H789C775.883 170.75 765.25 160.117 765.25 147V25C765.25 11.8832 775.883 1.25 789 1.25Z" fill="#080908" stroke="#151D15" stroke-width="2.5"/>
<path d="M365.333 86C365.333 91.891 370.109 96.6667 376 96.6667C381.891 96.6667 386.667 91.891 386.667 86C386.667 80.109 381.891 75.3333 376 75.3333C370.109 75.3333 365.333 80.109 365.333 86ZM293.35 88C294.455 88 295.35 87.1046 295.35 86C295.35 84.8954 294.455 84 293.35 84V88ZM302.05 84C300.945 84 300.05 84.8954 300.05 86C300.05 87.1046 300.945 88 302.05 88V84ZM310.75 88C311.855 88 312.75 87.1046 312.75 86C312.75 84.8954 311.855 84 310.75 84V88ZM319.45 84C318.345 84 317.45 84.8954 317.45 86C317.45 87.1046 318.345 88 319.45 88V84ZM328.15 88C329.255 88 330.15 87.1046 330.15 86C330.15 84.8954 329.255 84 328.15 84V88ZM336.85 84C335.745 84 334.85 84.8954 334.85 86C334.85 87.1046 335.745 88 336.85 88V84ZM345.55 88C346.655 88 347.55 87.1046 347.55 86C347.55 84.8954 346.655 84 345.55 84V88ZM354.25 84C353.145 84 352.25 84.8954 352.25 86C352.25 87.1046 353.145 88 354.25 88V84ZM362.95 88C364.055 88 364.95 87.1046 364.95 86C364.95 84.8954 364.055 84 362.95 84V88ZM371.65 84C370.545 84 369.65 84.8954 369.65 86C369.65 87.1046 370.545 88 371.65 88V84ZM289 88H293.35V84H289V88ZM302.05 88H310.75V84H302.05V88ZM319.45 88H328.15V84H319.45V88ZM336.85 88H345.55V84H336.85V88ZM354.25 88H362.95V84H354.25V88ZM371.65 88H376V84H371.65V88ZM365.333 86C365.333 91.891 370.109 96.6667 376 96.6667C381.891 96.6667 386.667 91.891 386.667 86C386.667 80.109 381.891 75.3333 376 75.3333C370.109 75.3333 365.333 80.109 365.333 86ZM293.35 88C294.455 88 295.35 87.1046 295.35 86C295.35 84.8954 294.455 84 293.35 84V88ZM302.05 84C300.945 84 300.05 84.8954 300.05 86C300.05 87.1046 300.945 88 302.05 88V84ZM310.75 88C311.855 88 312.75 87.1046 312.75 86C312.75 84.8954 311.855 84 310.75 84V88ZM319.45 84C318.345 84 317.45 84.8954 317.45 86C317.45 87.1046 318.345 88 319.45 88V84ZM328.15 88C329.255 88 330.15 87.1046 330.15 86C330.15 84.8954 329.255 84 328.15 84V88ZM336.85 84C335.745 84 334.85 84.8954 334.85 86C334.85 87.1046 335.745 88 336.85 88V84ZM345.55 88C346.655 88 347.55 87.1046 347.55 86C347.55 84.8954 346.655 84 345.55 84V88ZM354.25 84C353.145 84 352.25 84.8954 352.25 86C352.25 87.1046 353.145 88 354.25 88V84ZM362.95 88C364.055 88 364.95 87.1046 364.95 86C364.95 84.8954 364.055 84 362.95 84V88ZM371.65 84C370.545 84 369.65 84.8954 369.65 86C369.65 87.1046 370.545 88 371.65 88V84ZM289 88H293.35V84H289V88ZM302.05 88H310.75V84H302.05V88ZM319.45 88H328.15V84H319.45V88ZM336.85 88H345.55V84H336.85V88ZM354.25 88H362.95V84H354.25V88ZM371.65 88H376V84H371.65V88Z" fill="#1D281D"/>
<path d="M747.333 86C747.333 91.891 752.109 96.6667 758 96.6667C763.891 96.6667 768.667 91.891 768.667 86C768.667 80.109 763.891 75.3333 758 75.3333C752.109 75.3333 747.333 80.109 747.333 86ZM675.35 88C676.455 88 677.35 87.1046 677.35 86C677.35 84.8954 676.455 84 675.35 84V88ZM684.05 84C682.945 84 682.05 84.8954 682.05 86C682.05 87.1046 682.945 88 684.05 88V84ZM692.75 88C693.855 88 694.75 87.1046 694.75 86C694.75 84.8954 693.855 84 692.75 84V88ZM701.45 84C700.345 84 699.45 84.8954 699.45 86C699.45 87.1046 700.345 88 701.45 88V84ZM710.15 88C711.255 88 712.15 87.1046 712.15 86C712.15 84.8954 711.255 84 710.15 84V88ZM718.85 84C717.745 84 716.85 84.8954 716.85 86C716.85 87.1046 717.745 88 718.85 88V84ZM727.55 88C728.655 88 729.55 87.1046 729.55 86C729.55 84.8954 728.655 84 727.55 84V88ZM736.25 84C735.145 84 734.25 84.8954 734.25 86C734.25 87.1046 735.145 88 736.25 88V84ZM744.95 88C746.055 88 746.95 87.1046 746.95 86C746.95 84.8954 746.055 84 744.95 84V88ZM753.65 84C752.545 84 751.65 84.8954 751.65 86C751.65 87.1046 752.545 88 753.65 88V84ZM671 88H675.35V84H671V88ZM684.05 88H692.75V84H684.05V88ZM701.45 88H710.15V84H701.45V88ZM718.85 88H727.55V84H718.85V88ZM736.25 88H744.95V84H736.25V88ZM753.65 88H758V84H753.65V88ZM747.333 86C747.333 91.891 752.109 96.6667 758 96.6667C763.891 96.6667 768.667 91.891 768.667 86C768.667 80.109 763.891 75.3333 758 75.3333C752.109 75.3333 747.333 80.109 747.333 86ZM675.35 88C676.455 88 677.35 87.1046 677.35 86C677.35 84.8954 676.455 84 675.35 84V88ZM684.05 84C682.945 84 682.05 84.8954 682.05 86C682.05 87.1046 682.945 88 684.05 88V84ZM692.75 88C693.855 88 694.75 87.1046 694.75 86C694.75 84.8954 693.855 84 692.75 84V88ZM701.45 84C700.345 84 699.45 84.8954 699.45 86C699.45 87.1046 700.345 88 701.45 88V84ZM710.15 88C711.255 88 712.15 87.1046 712.15 86C712.15 84.8954 711.255 84 710.15 84V88ZM718.85 84C717.745 84 716.85 84.8954 716.85 86C716.85 87.1046 717.745 88 718.85 88V84ZM727.55 88C728.655 88 729.55 87.1046 729.55 86C729.55 84.8954 728.655 84 727.55 84V88ZM736.25 84C735.145 84 734.25 84.8954 734.25 86C734.25 87.1046 735.145 88 736.25 88V84ZM744.95 88C746.055 88 746.95 87.1046 746.95 86C746.95 84.8954 746.055 84 744.95 84V88ZM753.65 84C752.545 84 751.65 84.8954 751.65 86C751.65 87.1046 752.545 88 753.65 88V84ZM671 88H675.35V84H671V88ZM684.05 88H692.75V84H684.05V88ZM701.45 88H710.15V84H701.45V88ZM718.85 88H727.55V84H718.85V88ZM736.25 88H744.95V84H736.25V88ZM753.65 88H758V84H753.65V88Z" fill="#1D281D"/>
</svg>
