<svg width="982" height="631" viewBox="0 0 982 631" fill="none" xmlns="http://www.w3.org/2000/svg">
<path d="M25 1.25H302C315.117 1.25 325.75 11.8832 325.75 25V247C325.75 260.117 315.117 270.75 302 270.75H25C11.8832 270.75 1.25 260.117 1.25 247V25C1.25 11.8832 11.8832 1.25 25 1.25Z" fill="#080908" stroke="#151D15" stroke-width="2.5"/>
<path d="M680 1.25H957C970.117 1.25 980.75 11.8832 980.75 25V247C980.75 260.117 970.117 270.75 957 270.75H680C666.883 270.75 656.25 260.117 656.25 247V25C656.25 11.8832 666.883 1.25 680 1.25Z" fill="#080908" stroke="#151D15" stroke-width="2.5"/>
<path d="M25 360.25H302C315.117 360.25 325.75 370.883 325.75 384V606C325.75 619.117 315.117 629.75 302 629.75H25C11.8832 629.75 1.25 619.117 1.25 606V384C1.25 370.883 11.8832 360.25 25 360.25Z" fill="#080908" stroke="#151D15" stroke-width="2.5"/>
<path d="M680 360.25H957C970.117 360.25 980.75 370.883 980.75 384V606C980.75 619.117 970.117 629.75 957 629.75H680C666.883 629.75 656.25 619.117 656.25 606V384C656.25 370.883 666.883 360.25 680 360.25Z" fill="#080908" stroke="#151D15" stroke-width="2.5"/>
<path d="M164 348.333C158.109 348.333 153.333 353.109 153.333 359C153.333 364.891 158.109 369.667 164 369.667C169.891 369.667 174.667 364.891 174.667 359C174.667 353.109 169.891 348.333 164 348.333ZM162 276.35C162 277.455 162.895 278.35 164 278.35C165.105 278.35 166 277.455 166 276.35H162ZM166 285.05C166 283.945 165.105 283.05 164 283.05C162.895 283.05 162 283.945 162 285.05H166ZM162 293.75C162 294.855 162.895 295.75 164 295.75C165.105 295.75 166 294.855 166 293.75H162ZM166 302.45C166 301.345 165.105 300.45 164 300.45C162.895 300.45 162 301.345 162 302.45H166ZM162 311.15C162 312.255 162.895 313.15 164 313.15C165.105 313.15 166 312.255 166 311.15H162ZM166 319.85C166 318.745 165.105 317.85 164 317.85C162.895 317.85 162 318.745 162 319.85H166ZM162 328.55C162 329.655 162.895 330.55 164 330.55C165.105 330.55 166 329.655 166 328.55H162ZM166 337.25C166 336.145 165.105 335.25 164 335.25C162.895 335.25 162 336.145 162 337.25H166ZM162 345.95C162 347.055 162.895 347.95 164 347.95C165.105 347.95 166 347.055 166 345.95H162ZM166 354.65C166 353.545 165.105 352.65 164 352.65C162.895 352.65 162 353.545 162 354.65H166ZM162 272V276.35H166V272H162ZM162 285.05V293.75H166V285.05H162ZM162 302.45V311.15H166V302.45H162ZM162 319.85V328.55H166V319.85H162ZM162 337.25V345.95H166V337.25H162ZM162 354.65V359H166V354.65H162ZM164 348.333C158.109 348.333 153.333 353.109 153.333 359C153.333 364.891 158.109 369.667 164 369.667C169.891 369.667 174.667 364.891 174.667 359C174.667 353.109 169.891 348.333 164 348.333ZM162 276.35C162 277.455 162.895 278.35 164 278.35C165.105 278.35 166 277.455 166 276.35H162ZM166 285.05C166 283.945 165.105 283.05 164 283.05C162.895 283.05 162 283.945 162 285.05H166ZM162 293.75C162 294.855 162.895 295.75 164 295.75C165.105 295.75 166 294.855 166 293.75H162ZM166 302.45C166 301.345 165.105 300.45 164 300.45C162.895 300.45 162 301.345 162 302.45H166ZM162 311.15C162 312.255 162.895 313.15 164 313.15C165.105 313.15 166 312.255 166 311.15H162ZM166 319.85C166 318.745 165.105 317.85 164 317.85C162.895 317.85 162 318.745 162 319.85H166ZM162 328.55C162 329.655 162.895 330.55 164 330.55C165.105 330.55 166 329.655 166 328.55H162ZM166 337.25C166 336.145 165.105 335.25 164 335.25C162.895 335.25 162 336.145 162 337.25H166ZM162 345.95C162 347.055 162.895 347.95 164 347.95C165.105 347.95 166 347.055 166 345.95H162ZM166 354.65C166 353.545 165.105 352.65 164 352.65C162.895 352.65 162 353.545 162 354.65H166ZM162 272V276.35H166V272H162ZM162 285.05V293.75H166V285.05H162ZM162 302.45V311.15H166V302.45H162ZM162 319.85V328.55H166V319.85H162ZM162 337.25V345.95H166V337.25H162ZM162 354.65V359H166V354.65H162Z" fill="#1D281D"/>
<path d="M819 348.333C813.109 348.333 808.333 353.109 808.333 359C808.333 364.891 813.109 369.667 819 369.667C824.891 369.667 829.667 364.891 829.667 359C829.667 353.109 824.891 348.333 819 348.333ZM817 276.35C817 277.455 817.895 278.35 819 278.35C820.105 278.35 821 277.455 821 276.35H817ZM821 285.05C821 283.945 820.105 283.05 819 283.05C817.895 283.05 817 283.945 817 285.05H821ZM817 293.75C817 294.855 817.895 295.75 819 295.75C820.105 295.75 821 294.855 821 293.75H817ZM821 302.45C821 301.345 820.105 300.45 819 300.45C817.895 300.45 817 301.345 817 302.45H821ZM817 311.15C817 312.255 817.895 313.15 819 313.15C820.105 313.15 821 312.255 821 311.15H817ZM821 319.85C821 318.745 820.105 317.85 819 317.85C817.895 317.85 817 318.745 817 319.85H821ZM817 328.55C817 329.655 817.895 330.55 819 330.55C820.105 330.55 821 329.655 821 328.55H817ZM821 337.25C821 336.145 820.105 335.25 819 335.25C817.895 335.25 817 336.145 817 337.25H821ZM817 345.95C817 347.055 817.895 347.95 819 347.95C820.105 347.95 821 347.055 821 345.95H817ZM821 354.65C821 353.545 820.105 352.65 819 352.65C817.895 352.65 817 353.545 817 354.65H821ZM817 272V276.35H821V272H817ZM817 285.05V293.75H821V285.05H817ZM817 302.45V311.15H821V302.45H817ZM817 319.85V328.55H821V319.85H817ZM817 337.25V345.95H821V337.25H817ZM817 354.65V359H821V354.65H817ZM819 348.333C813.109 348.333 808.333 353.109 808.333 359C808.333 364.891 813.109 369.667 819 369.667C824.891 369.667 829.667 364.891 829.667 359C829.667 353.109 824.891 348.333 819 348.333ZM817 276.35C817 277.455 817.895 278.35 819 278.35C820.105 278.35 821 277.455 821 276.35H817ZM821 285.05C821 283.945 820.105 283.05 819 283.05C817.895 283.05 817 283.945 817 285.05H821ZM817 293.75C817 294.855 817.895 295.75 819 295.75C820.105 295.75 821 294.855 821 293.75H817ZM821 302.45C821 301.345 820.105 300.45 819 300.45C817.895 300.45 817 301.345 817 302.45H821ZM817 311.15C817 312.255 817.895 313.15 819 313.15C820.105 313.15 821 312.255 821 311.15H817ZM821 319.85C821 318.745 820.105 317.85 819 317.85C817.895 317.85 817 318.745 817 319.85H821ZM817 328.55C817 329.655 817.895 330.55 819 330.55C820.105 330.55 821 329.655 821 328.55H817ZM821 337.25C821 336.145 820.105 335.25 819 335.25C817.895 335.25 817 336.145 817 337.25H821ZM817 345.95C817 347.055 817.895 347.95 819 347.95C820.105 347.95 821 347.055 821 345.95H817ZM821 354.65C821 353.545 820.105 352.65 819 352.65C817.895 352.65 817 353.545 817 354.65H821ZM817 272V276.35H821V272H817ZM817 285.05V293.75H821V285.05H817ZM817 302.45V311.15H821V302.45H817ZM817 319.85V328.55H821V319.85H817ZM817 337.25V345.95H821V337.25H817ZM817 354.65V359H821V354.65H817Z" fill="#1D281D"/>
<path d="M476 507.5L476 509.5L478 509.5L478 507.5L476 507.5ZM661.494 170.426C666.699 167.668 668.683 161.213 665.925 156.007C663.168 150.801 656.712 148.817 651.506 151.575C646.301 154.333 644.316 160.789 647.074 165.994C649.832 171.2 656.288 173.184 661.494 170.426ZM476 161.001L476 159.001L474 159.001L474 161.001L476 161.001ZM333.083 509.5C334.188 509.5 335.083 508.605 335.083 507.5C335.083 506.396 334.188 505.5 333.083 505.5L333.083 509.5ZM341.25 505.5C340.146 505.5 339.25 506.396 339.25 507.5C339.25 508.605 340.146 509.5 341.25 509.5L341.25 505.5ZM349.417 509.5C350.521 509.5 351.417 508.605 351.417 507.5C351.417 506.396 350.521 505.5 349.417 505.5L349.417 509.5ZM357.583 505.5C356.479 505.5 355.583 506.396 355.583 507.5C355.583 508.605 356.479 509.5 357.583 509.5L357.583 505.5ZM365.75 509.5C366.855 509.5 367.75 508.605 367.75 507.5C367.75 506.396 366.855 505.5 365.75 505.5L365.75 509.5ZM373.917 505.5C372.812 505.5 371.917 506.396 371.917 507.5C371.917 508.605 372.812 509.5 373.917 509.5L373.917 505.5ZM382.083 509.5C383.188 509.5 384.083 508.605 384.083 507.5C384.083 506.396 383.188 505.5 382.083 505.5L382.083 509.5ZM390.25 505.5C389.145 505.5 388.25 506.396 388.25 507.5C388.25 508.605 389.145 509.5 390.25 509.5L390.25 505.5ZM398.417 509.5C399.521 509.5 400.417 508.605 400.417 507.5C400.417 506.396 399.521 505.5 398.417 505.5L398.417 509.5ZM406.583 505.5C405.479 505.5 404.583 506.396 404.583 507.5C404.583 508.605 405.479 509.5 406.583 509.5L406.583 505.5ZM414.75 509.5C415.855 509.5 416.75 508.605 416.75 507.5C416.75 506.396 415.854 505.5 414.75 505.5L414.75 509.5ZM422.917 505.5C421.812 505.5 420.917 506.396 420.917 507.5C420.917 508.605 421.812 509.5 422.917 509.5L422.917 505.5ZM431.083 509.5C432.188 509.5 433.083 508.605 433.083 507.5C433.083 506.395 432.188 505.5 431.083 505.5L431.083 509.5ZM439.25 505.5C438.145 505.5 437.25 506.395 437.25 507.5C437.25 508.605 438.145 509.5 439.25 509.5L439.25 505.5ZM447.417 509.5C448.521 509.5 449.417 508.605 449.417 507.5C449.417 506.395 448.521 505.5 447.417 505.5L447.417 509.5ZM455.583 505.5C454.479 505.5 453.583 506.395 453.583 507.5C453.583 508.605 454.479 509.5 455.583 509.5L455.583 505.5ZM463.75 509.5C464.854 509.5 465.75 508.605 465.75 507.5C465.75 506.395 464.854 505.5 463.75 505.5L463.75 509.5ZM471.916 505.5C470.812 505.5 469.916 506.395 469.916 507.5C469.916 508.604 470.812 509.5 471.916 509.5L471.916 505.5ZM478 503.562C478 502.458 477.104 501.562 476 501.562C474.895 501.562 474 502.458 474 503.562L478 503.562ZM474 495.687C474 496.792 474.895 497.687 476 497.687C477.104 497.687 478 496.792 478 495.687L474 495.687ZM478 487.812C478 486.708 477.104 485.812 476 485.812C474.895 485.812 474 486.708 474 487.812L478 487.812ZM474 479.937C474 481.042 474.895 481.937 476 481.937C477.104 481.937 478 481.042 478 479.937L474 479.937ZM478 472.062C478 470.958 477.104 470.062 476 470.062C474.895 470.062 474 470.958 474 472.062L478 472.062ZM474 464.187C474 465.292 474.895 466.187 476 466.187C477.104 466.187 478 465.292 478 464.187L474 464.187ZM478 456.313C478 455.208 477.104 454.313 476 454.313C474.895 454.313 474 455.208 474 456.313L478 456.313ZM474 448.438C474 449.542 474.895 450.438 476 450.438C477.104 450.438 478 449.542 478 448.438L474 448.438ZM478 440.563C478 439.458 477.104 438.563 476 438.563C474.895 438.563 474 439.458 474 440.563L478 440.563ZM474 432.688C474 433.792 474.895 434.688 476 434.688C477.104 434.688 478 433.792 478 432.688L474 432.688ZM478 424.813C478 423.708 477.104 422.813 476 422.813C474.895 422.813 474 423.708 474 424.813L478 424.813ZM474 416.938C474 418.042 474.895 418.938 476 418.938C477.104 418.938 478 418.042 478 416.938L474 416.938ZM478 409.063C478 407.958 477.104 407.063 476 407.063C474.895 407.063 474 407.958 474 409.063L478 409.063ZM474 401.188C474 402.292 474.895 403.188 476 403.188C477.104 403.188 478 402.292 478 401.188L474 401.188ZM478 393.313C478 392.208 477.104 391.313 476 391.313C474.895 391.313 474 392.208 474 393.313L478 393.313ZM474 385.438C474 386.542 474.895 387.438 476 387.438C477.104 387.438 478 386.542 478 385.438L474 385.438ZM478 377.563C478 376.458 477.104 375.563 476 375.563C474.895 375.563 474 376.458 474 377.563L478 377.563ZM474 369.688C474 370.792 474.895 371.688 476 371.688C477.104 371.688 478 370.792 478 369.688L474 369.688ZM478 361.813C478 360.708 477.104 359.813 476 359.813C474.895 359.813 474 360.708 474 361.813L478 361.813ZM474 353.938C474 355.042 474.895 355.938 476 355.938C477.104 355.938 478 355.042 478 353.938L474 353.938ZM478 346.063C478 344.958 477.104 344.063 476 344.063C474.895 344.063 474 344.958 474 346.063L478 346.063ZM474 338.188C474 339.292 474.895 340.188 476 340.188C477.104 340.188 478 339.292 478 338.188L474 338.188ZM478 330.313C478 329.208 477.104 328.313 476 328.313C474.895 328.313 474 329.208 474 330.313L478 330.313ZM474 322.438C474 323.542 474.895 324.438 476 324.438C477.104 324.438 478 323.542 478 322.438L474 322.438ZM478 314.563C478 313.458 477.104 312.563 476 312.563C474.895 312.563 474 313.458 474 314.563L478 314.563ZM474 306.688C474 307.792 474.895 308.688 476 308.688C477.104 308.688 478 307.792 478 306.688L474 306.688ZM478 298.813C478 297.708 477.104 296.813 476 296.813C474.895 296.813 474 297.708 474 298.813L478 298.813ZM474 290.938C474 292.042 474.895 292.938 476 292.938C477.104 292.938 478 292.042 478 290.938L474 290.938ZM478 283.063C478 281.958 477.104 281.063 476 281.063C474.895 281.063 474 281.958 474 283.063L478 283.063ZM474 275.188C474 276.292 474.895 277.188 476 277.188C477.104 277.188 478 276.292 478 275.188L474 275.188ZM478 267.313C478 266.208 477.104 265.313 476 265.313C474.895 265.313 474 266.208 474 267.313L478 267.313ZM474 259.438C474 260.542 474.895 261.438 476 261.438C477.104 261.438 478 260.542 478 259.438L474 259.438ZM478 251.563C478 250.458 477.104 249.563 476 249.563C474.895 249.563 474 250.458 474 251.563L478 251.563ZM474 243.688C474 244.792 474.895 245.688 476 245.688C477.104 245.688 478 244.792 478 243.688L474 243.688ZM478 235.813C478 234.708 477.104 233.813 476 233.813C474.895 233.813 474 234.708 474 235.813L478 235.813ZM474 227.938C474 229.042 474.895 229.938 476 229.938C477.104 229.938 478 229.042 478 227.938L474 227.938ZM478 220.063C478 218.958 477.104 218.063 476 218.063C474.895 218.063 474 218.958 474 220.063L478 220.063ZM474 212.188C474 213.292 474.895 214.188 476 214.188C477.104 214.188 478 213.292 478 212.188L474 212.188ZM478 204.313C478 203.208 477.104 202.313 476 202.313C474.895 202.313 474 203.208 474 204.313L478 204.313ZM474 196.438C474 197.542 474.895 198.438 476 198.438C477.104 198.438 478 197.542 478 196.438L474 196.438ZM478 188.563C478 187.458 477.104 186.563 476 186.563C474.895 186.563 474 187.458 474 188.563L478 188.563ZM474 180.688C474 181.792 474.895 182.688 476 182.688C477.104 182.688 478 181.792 478 180.688L474 180.688ZM478 172.813C478 171.708 477.104 170.813 476 170.813C474.895 170.813 474 171.708 474 172.813L478 172.813ZM474 164.938C474 166.042 474.895 166.938 476 166.938C477.104 166.938 478 166.042 478 164.938L474 164.938ZM480.102 163.001C481.207 163.001 482.102 162.105 482.102 161.001C482.102 159.896 481.207 159.001 480.102 159.001L480.102 163.001ZM488.307 159.001C487.202 159.001 486.307 159.896 486.307 161.001C486.307 162.105 487.202 163.001 488.307 163.001L488.307 159.001ZM496.511 163.001C497.616 163.001 498.511 162.105 498.511 161.001C498.511 159.896 497.616 159.001 496.511 159.001L496.511 163.001ZM504.716 159.001C503.611 159.001 502.716 159.896 502.716 161.001C502.716 162.105 503.611 163.001 504.716 163.001L504.716 159.001ZM512.92 163.001C514.025 163.001 514.92 162.105 514.92 161.001C514.92 159.896 514.025 159.001 512.92 159.001L512.92 163.001ZM521.125 159.001C520.02 159.001 519.125 159.896 519.125 161.001C519.125 162.105 520.02 163.001 521.125 163.001L521.125 159.001ZM529.329 163.001C530.434 163.001 531.329 162.105 531.329 161.001C531.329 159.896 530.434 159.001 529.329 159.001L529.329 163.001ZM537.534 159.001C536.429 159.001 535.534 159.896 535.534 161.001C535.534 162.105 536.429 163.001 537.534 163.001L537.534 159.001ZM545.738 163.001C546.843 163.001 547.738 162.105 547.738 161.001C547.738 159.896 546.843 159.001 545.738 159.001L545.738 163.001ZM553.943 159.001C552.838 159.001 551.943 159.896 551.943 161.001C551.943 162.105 552.838 163.001 553.943 163.001L553.943 159.001ZM562.148 163.001C563.252 163.001 564.148 162.105 564.148 161.001C564.148 159.896 563.252 159.001 562.148 159.001L562.148 163.001ZM570.352 159.001C569.248 159.001 568.352 159.896 568.352 161.001C568.352 162.105 569.248 163.001 570.352 163.001L570.352 159.001ZM578.557 163.001C579.661 163.001 580.557 162.105 580.557 161.001C580.557 159.896 579.661 159.001 578.557 159.001L578.557 163.001ZM586.761 159.001C585.657 159.001 584.761 159.896 584.761 161.001C584.761 162.105 585.657 163.001 586.761 163.001L586.761 159.001ZM594.966 163.001C596.07 163.001 596.966 162.105 596.966 161.001C596.966 159.896 596.07 159.001 594.966 159.001L594.966 163.001ZM603.17 159.001C602.066 159.001 601.17 159.896 601.17 161.001C601.17 162.105 602.066 163.001 603.17 163.001L603.17 159.001ZM611.375 163.001C612.479 163.001 613.375 162.105 613.375 161.001C613.375 159.896 612.479 159.001 611.375 159.001L611.375 163.001ZM619.579 159.001C618.475 159.001 617.579 159.896 617.579 161.001C617.579 162.105 618.475 163.001 619.579 163.001L619.579 159.001ZM627.784 163.001C628.889 163.001 629.784 162.105 629.784 161.001C629.784 159.896 628.889 159.001 627.784 159.001L627.784 163.001ZM635.988 159.001C634.884 159.001 633.988 159.896 633.988 161.001C633.988 162.105 634.884 163.001 635.988 163.001L635.988 159.001ZM644.193 163.001C645.298 163.001 646.193 162.105 646.193 161.001C646.193 159.896 645.298 159.001 644.193 159.001L644.193 163.001ZM652.398 159.001C651.293 159.001 650.398 159.896 650.398 161.001C650.398 162.105 651.293 163.001 652.398 163.001L652.398 159.001ZM329 509.5L333.083 509.5L333.083 505.5L329 505.5L329 509.5ZM341.25 509.5L349.417 509.5L349.417 505.5L341.25 505.5L341.25 509.5ZM357.583 509.5L365.75 509.5L365.75 505.5L357.583 505.5L357.583 509.5ZM373.917 509.5L382.083 509.5L382.083 505.5L373.917 505.5L373.917 509.5ZM390.25 509.5L398.417 509.5L398.417 505.5L390.25 505.5L390.25 509.5ZM406.583 509.5L414.75 509.5L414.75 505.5L406.583 505.5L406.583 509.5ZM422.917 509.5L431.083 509.5L431.083 505.5L422.917 505.5L422.917 509.5ZM439.25 509.5L447.417 509.5L447.417 505.5L439.25 505.5L439.25 509.5ZM455.583 509.5L463.75 509.5L463.75 505.5L455.583 505.5L455.583 509.5ZM471.916 509.5L476 509.5L476 505.5L471.916 505.5L471.916 509.5ZM478 507.5L478 503.562L474 503.562L474 507.5L478 507.5ZM478 495.687L478 487.812L474 487.812L474 495.687L478 495.687ZM478 479.937L478 472.062L474 472.062L474 479.937L478 479.937ZM478 464.187L478 456.313L474 456.313L474 464.187L478 464.187ZM478 448.438L478 440.563L474 440.563L474 448.438L478 448.438ZM478 432.688L478 424.813L474 424.813L474 432.688L478 432.688ZM478 416.938L478 409.063L474 409.063L474 416.938L478 416.938ZM478 401.188L478 393.313L474 393.313L474 401.188L478 401.188ZM478 385.438L478 377.563L474 377.563L474 385.438L478 385.438ZM478 369.688L478 361.813L474 361.813L474 369.688L478 369.688ZM478 353.938L478 346.063L474 346.063L474 353.938L478 353.938ZM478 338.188L478 330.313L474 330.313L474 338.188L478 338.188ZM478 322.438L478 314.563L474 314.563L474 322.438L478 322.438ZM478 306.688L478 298.813L474 298.813L474 306.688L478 306.688ZM478 290.938L478 283.063L474 283.063L474 290.938L478 290.938ZM478 275.188L478 267.313L474 267.313L474 275.188L478 275.188ZM478 259.438L478 251.563L474 251.563L474 259.438L478 259.438ZM478 243.688L478 235.813L474 235.813L474 243.688L478 243.688ZM478 227.938L478 220.063L474 220.063L474 227.938L478 227.938ZM478 212.188L478 204.313L474 204.313L474 212.188L478 212.188ZM478 196.438L478 188.563L474 188.563L474 196.438L478 196.438ZM478 180.688L478 172.813L474 172.813L474 180.688L478 180.688ZM478 164.938L478 161.001L474 161.001L474 164.938L478 164.938ZM476 163.001L480.102 163.001L480.102 159.001L476 159.001L476 163.001ZM488.307 163.001L496.511 163.001L496.511 159.001L488.307 159.001L488.307 163.001ZM504.716 163.001L512.92 163.001L512.92 159.001L504.716 159.001L504.716 163.001ZM521.125 163.001L529.329 163.001L529.329 159.001L521.125 159.001L521.125 163.001ZM537.534 163.001L545.738 163.001L545.738 159.001L537.534 159.001L537.534 163.001ZM553.943 163.001L562.148 163.001L562.148 159.001L553.943 159.001L553.943 163.001ZM570.352 163.001L578.557 163.001L578.557 159.001L570.352 159.001L570.352 163.001ZM586.761 163.001L594.966 163.001L594.966 159.001L586.761 159.001L586.761 163.001ZM603.17 163.001L611.375 163.001L611.375 159.001L603.17 159.001L603.17 163.001ZM619.579 163.001L627.784 163.001L627.784 159.001L619.579 159.001L619.579 163.001ZM635.988 163.001L644.193 163.001L644.193 159.001L635.988 159.001L635.988 163.001ZM652.398 163.001L656.5 163.001L656.5 159.001L652.398 159.001L652.398 163.001ZM476 507.5L476 509.5L478 509.5L478 507.5L476 507.5ZM661.494 170.426C666.699 167.668 668.683 161.213 665.925 156.007C663.168 150.801 656.712 148.817 651.506 151.575C646.301 154.333 644.316 160.789 647.074 165.994C649.832 171.2 656.288 173.184 661.494 170.426ZM476 161.001L476 159.001L474 159.001L474 161.001L476 161.001ZM333.083 509.5C334.188 509.5 335.083 508.605 335.083 507.5C335.083 506.396 334.188 505.5 333.083 505.5L333.083 509.5ZM341.25 505.5C340.146 505.5 339.25 506.396 339.25 507.5C339.25 508.605 340.146 509.5 341.25 509.5L341.25 505.5ZM349.417 509.5C350.521 509.5 351.417 508.605 351.417 507.5C351.417 506.396 350.521 505.5 349.417 505.5L349.417 509.5ZM357.583 505.5C356.479 505.5 355.583 506.396 355.583 507.5C355.583 508.605 356.479 509.5 357.583 509.5L357.583 505.5ZM365.75 509.5C366.855 509.5 367.75 508.605 367.75 507.5C367.75 506.396 366.855 505.5 365.75 505.5L365.75 509.5ZM373.917 505.5C372.812 505.5 371.917 506.396 371.917 507.5C371.917 508.605 372.812 509.5 373.917 509.5L373.917 505.5ZM382.083 509.5C383.188 509.5 384.083 508.605 384.083 507.5C384.083 506.396 383.188 505.5 382.083 505.5L382.083 509.5ZM390.25 505.5C389.145 505.5 388.25 506.396 388.25 507.5C388.25 508.605 389.145 509.5 390.25 509.5L390.25 505.5ZM398.417 509.5C399.521 509.5 400.417 508.605 400.417 507.5C400.417 506.396 399.521 505.5 398.417 505.5L398.417 509.5ZM406.583 505.5C405.479 505.5 404.583 506.396 404.583 507.5C404.583 508.605 405.479 509.5 406.583 509.5L406.583 505.5ZM414.75 509.5C415.855 509.5 416.75 508.605 416.75 507.5C416.75 506.396 415.854 505.5 414.75 505.5L414.75 509.5ZM422.917 505.5C421.812 505.5 420.917 506.396 420.917 507.5C420.917 508.605 421.812 509.5 422.917 509.5L422.917 505.5ZM431.083 509.5C432.188 509.5 433.083 508.605 433.083 507.5C433.083 506.395 432.188 505.5 431.083 505.5L431.083 509.5ZM439.25 505.5C438.145 505.5 437.25 506.395 437.25 507.5C437.25 508.605 438.145 509.5 439.25 509.5L439.25 505.5ZM447.417 509.5C448.521 509.5 449.417 508.605 449.417 507.5C449.417 506.395 448.521 505.5 447.417 505.5L447.417 509.5ZM455.583 505.5C454.479 505.5 453.583 506.395 453.583 507.5C453.583 508.605 454.479 509.5 455.583 509.5L455.583 505.5ZM463.75 509.5C464.854 509.5 465.75 508.605 465.75 507.5C465.75 506.395 464.854 505.5 463.75 505.5L463.75 509.5ZM471.916 505.5C470.812 505.5 469.916 506.395 469.916 507.5C469.916 508.604 470.812 509.5 471.916 509.5L471.916 505.5ZM478 503.562C478 502.458 477.104 501.562 476 501.562C474.895 501.562 474 502.458 474 503.562L478 503.562ZM474 495.687C474 496.792 474.895 497.687 476 497.687C477.104 497.687 478 496.792 478 495.687L474 495.687ZM478 487.812C478 486.708 477.104 485.812 476 485.812C474.895 485.812 474 486.708 474 487.812L478 487.812ZM474 479.937C474 481.042 474.895 481.937 476 481.937C477.104 481.937 478 481.042 478 479.937L474 479.937ZM478 472.062C478 470.958 477.104 470.062 476 470.062C474.895 470.062 474 470.958 474 472.062L478 472.062ZM474 464.187C474 465.292 474.895 466.187 476 466.187C477.104 466.187 478 465.292 478 464.187L474 464.187ZM478 456.313C478 455.208 477.104 454.313 476 454.313C474.895 454.313 474 455.208 474 456.313L478 456.313ZM474 448.438C474 449.542 474.895 450.438 476 450.438C477.104 450.438 478 449.542 478 448.438L474 448.438ZM478 440.563C478 439.458 477.104 438.563 476 438.563C474.895 438.563 474 439.458 474 440.563L478 440.563ZM474 432.688C474 433.792 474.895 434.688 476 434.688C477.104 434.688 478 433.792 478 432.688L474 432.688ZM478 424.813C478 423.708 477.104 422.813 476 422.813C474.895 422.813 474 423.708 474 424.813L478 424.813ZM474 416.938C474 418.042 474.895 418.938 476 418.938C477.104 418.938 478 418.042 478 416.938L474 416.938ZM478 409.063C478 407.958 477.104 407.063 476 407.063C474.895 407.063 474 407.958 474 409.063L478 409.063ZM474 401.188C474 402.292 474.895 403.188 476 403.188C477.104 403.188 478 402.292 478 401.188L474 401.188ZM478 393.313C478 392.208 477.104 391.313 476 391.313C474.895 391.313 474 392.208 474 393.313L478 393.313ZM474 385.438C474 386.542 474.895 387.438 476 387.438C477.104 387.438 478 386.542 478 385.438L474 385.438ZM478 377.563C478 376.458 477.104 375.563 476 375.563C474.895 375.563 474 376.458 474 377.563L478 377.563ZM474 369.688C474 370.792 474.895 371.688 476 371.688C477.104 371.688 478 370.792 478 369.688L474 369.688ZM478 361.813C478 360.708 477.104 359.813 476 359.813C474.895 359.813 474 360.708 474 361.813L478 361.813ZM474 353.938C474 355.042 474.895 355.938 476 355.938C477.104 355.938 478 355.042 478 353.938L474 353.938ZM478 346.063C478 344.958 477.104 344.063 476 344.063C474.895 344.063 474 344.958 474 346.063L478 346.063ZM474 338.188C474 339.292 474.895 340.188 476 340.188C477.104 340.188 478 339.292 478 338.188L474 338.188ZM478 330.313C478 329.208 477.104 328.313 476 328.313C474.895 328.313 474 329.208 474 330.313L478 330.313ZM474 322.438C474 323.542 474.895 324.438 476 324.438C477.104 324.438 478 323.542 478 322.438L474 322.438ZM478 314.563C478 313.458 477.104 312.563 476 312.563C474.895 312.563 474 313.458 474 314.563L478 314.563ZM474 306.688C474 307.792 474.895 308.688 476 308.688C477.104 308.688 478 307.792 478 306.688L474 306.688ZM478 298.813C478 297.708 477.104 296.813 476 296.813C474.895 296.813 474 297.708 474 298.813L478 298.813ZM474 290.938C474 292.042 474.895 292.938 476 292.938C477.104 292.938 478 292.042 478 290.938L474 290.938ZM478 283.063C478 281.958 477.104 281.063 476 281.063C474.895 281.063 474 281.958 474 283.063L478 283.063ZM474 275.188C474 276.292 474.895 277.188 476 277.188C477.104 277.188 478 276.292 478 275.188L474 275.188ZM478 267.313C478 266.208 477.104 265.313 476 265.313C474.895 265.313 474 266.208 474 267.313L478 267.313ZM474 259.438C474 260.542 474.895 261.438 476 261.438C477.104 261.438 478 260.542 478 259.438L474 259.438ZM478 251.563C478 250.458 477.104 249.563 476 249.563C474.895 249.563 474 250.458 474 251.563L478 251.563ZM474 243.688C474 244.792 474.895 245.688 476 245.688C477.104 245.688 478 244.792 478 243.688L474 243.688ZM478 235.813C478 234.708 477.104 233.813 476 233.813C474.895 233.813 474 234.708 474 235.813L478 235.813ZM474 227.938C474 229.042 474.895 229.938 476 229.938C477.104 229.938 478 229.042 478 227.938L474 227.938ZM478 220.063C478 218.958 477.104 218.063 476 218.063C474.895 218.063 474 218.958 474 220.063L478 220.063ZM474 212.188C474 213.292 474.895 214.188 476 214.188C477.104 214.188 478 213.292 478 212.188L474 212.188ZM478 204.313C478 203.208 477.104 202.313 476 202.313C474.895 202.313 474 203.208 474 204.313L478 204.313ZM474 196.438C474 197.542 474.895 198.438 476 198.438C477.104 198.438 478 197.542 478 196.438L474 196.438ZM478 188.563C478 187.458 477.104 186.563 476 186.563C474.895 186.563 474 187.458 474 188.563L478 188.563ZM474 180.688C474 181.792 474.895 182.688 476 182.688C477.104 182.688 478 181.792 478 180.688L474 180.688ZM478 172.813C478 171.708 477.104 170.813 476 170.813C474.895 170.813 474 171.708 474 172.813L478 172.813ZM474 164.938C474 166.042 474.895 166.938 476 166.938C477.104 166.938 478 166.042 478 164.938L474 164.938ZM480.102 163.001C481.207 163.001 482.102 162.105 482.102 161.001C482.102 159.896 481.207 159.001 480.102 159.001L480.102 163.001ZM488.307 159.001C487.202 159.001 486.307 159.896 486.307 161.001C486.307 162.105 487.202 163.001 488.307 163.001L488.307 159.001ZM496.511 163.001C497.616 163.001 498.511 162.105 498.511 161.001C498.511 159.896 497.616 159.001 496.511 159.001L496.511 163.001ZM504.716 159.001C503.611 159.001 502.716 159.896 502.716 161.001C502.716 162.105 503.611 163.001 504.716 163.001L504.716 159.001ZM512.92 163.001C514.025 163.001 514.92 162.105 514.92 161.001C514.92 159.896 514.025 159.001 512.92 159.001L512.92 163.001ZM521.125 159.001C520.02 159.001 519.125 159.896 519.125 161.001C519.125 162.105 520.02 163.001 521.125 163.001L521.125 159.001ZM529.329 163.001C530.434 163.001 531.329 162.105 531.329 161.001C531.329 159.896 530.434 159.001 529.329 159.001L529.329 163.001ZM537.534 159.001C536.429 159.001 535.534 159.896 535.534 161.001C535.534 162.105 536.429 163.001 537.534 163.001L537.534 159.001ZM545.738 163.001C546.843 163.001 547.738 162.105 547.738 161.001C547.738 159.896 546.843 159.001 545.738 159.001L545.738 163.001ZM553.943 159.001C552.838 159.001 551.943 159.896 551.943 161.001C551.943 162.105 552.838 163.001 553.943 163.001L553.943 159.001ZM562.148 163.001C563.252 163.001 564.148 162.105 564.148 161.001C564.148 159.896 563.252 159.001 562.148 159.001L562.148 163.001ZM570.352 159.001C569.248 159.001 568.352 159.896 568.352 161.001C568.352 162.105 569.248 163.001 570.352 163.001L570.352 159.001ZM578.557 163.001C579.661 163.001 580.557 162.105 580.557 161.001C580.557 159.896 579.661 159.001 578.557 159.001L578.557 163.001ZM586.761 159.001C585.657 159.001 584.761 159.896 584.761 161.001C584.761 162.105 585.657 163.001 586.761 163.001L586.761 159.001ZM594.966 163.001C596.07 163.001 596.966 162.105 596.966 161.001C596.966 159.896 596.07 159.001 594.966 159.001L594.966 163.001ZM603.17 159.001C602.066 159.001 601.17 159.896 601.17 161.001C601.17 162.105 602.066 163.001 603.17 163.001L603.17 159.001ZM611.375 163.001C612.479 163.001 613.375 162.105 613.375 161.001C613.375 159.896 612.479 159.001 611.375 159.001L611.375 163.001ZM619.579 159.001C618.475 159.001 617.579 159.896 617.579 161.001C617.579 162.105 618.475 163.001 619.579 163.001L619.579 159.001ZM627.784 163.001C628.889 163.001 629.784 162.105 629.784 161.001C629.784 159.896 628.889 159.001 627.784 159.001L627.784 163.001ZM635.988 159.001C634.884 159.001 633.988 159.896 633.988 161.001C633.988 162.105 634.884 163.001 635.988 163.001L635.988 159.001ZM644.193 163.001C645.298 163.001 646.193 162.105 646.193 161.001C646.193 159.896 645.298 159.001 644.193 159.001L644.193 163.001ZM652.398 159.001C651.293 159.001 650.398 159.896 650.398 161.001C650.398 162.105 651.293 163.001 652.398 163.001L652.398 159.001ZM329 509.5L333.083 509.5L333.083 505.5L329 505.5L329 509.5ZM341.25 509.5L349.417 509.5L349.417 505.5L341.25 505.5L341.25 509.5ZM357.583 509.5L365.75 509.5L365.75 505.5L357.583 505.5L357.583 509.5ZM373.917 509.5L382.083 509.5L382.083 505.5L373.917 505.5L373.917 509.5ZM390.25 509.5L398.417 509.5L398.417 505.5L390.25 505.5L390.25 509.5ZM406.583 509.5L414.75 509.5L414.75 505.5L406.583 505.5L406.583 509.5ZM422.917 509.5L431.083 509.5L431.083 505.5L422.917 505.5L422.917 509.5ZM439.25 509.5L447.417 509.5L447.417 505.5L439.25 505.5L439.25 509.5ZM455.583 509.5L463.75 509.5L463.75 505.5L455.583 505.5L455.583 509.5ZM471.916 509.5L476 509.5L476 505.5L471.916 505.5L471.916 509.5ZM478 507.5L478 503.562L474 503.562L474 507.5L478 507.5ZM478 495.687L478 487.812L474 487.812L474 495.687L478 495.687ZM478 479.937L478 472.062L474 472.062L474 479.937L478 479.937ZM478 464.187L478 456.313L474 456.313L474 464.187L478 464.187ZM478 448.438L478 440.563L474 440.563L474 448.438L478 448.438ZM478 432.688L478 424.813L474 424.813L474 432.688L478 432.688ZM478 416.938L478 409.063L474 409.063L474 416.938L478 416.938ZM478 401.188L478 393.313L474 393.313L474 401.188L478 401.188ZM478 385.438L478 377.563L474 377.563L474 385.438L478 385.438ZM478 369.688L478 361.813L474 361.813L474 369.688L478 369.688ZM478 353.938L478 346.063L474 346.063L474 353.938L478 353.938ZM478 338.188L478 330.313L474 330.313L474 338.188L478 338.188ZM478 322.438L478 314.563L474 314.563L474 322.438L478 322.438ZM478 306.688L478 298.813L474 298.813L474 306.688L478 306.688ZM478 290.938L478 283.063L474 283.063L474 290.938L478 290.938ZM478 275.188L478 267.313L474 267.313L474 275.188L478 275.188ZM478 259.438L478 251.563L474 251.563L474 259.438L478 259.438ZM478 243.688L478 235.813L474 235.813L474 243.688L478 243.688ZM478 227.938L478 220.063L474 220.063L474 227.938L478 227.938ZM478 212.188L478 204.313L474 204.313L474 212.188L478 212.188ZM478 196.438L478 188.563L474 188.563L474 196.438L478 196.438ZM478 180.688L478 172.813L474 172.813L474 180.688L478 180.688ZM478 164.938L478 161.001L474 161.001L474 164.938L478 164.938ZM476 163.001L480.102 163.001L480.102 159.001L476 159.001L476 163.001ZM488.307 163.001L496.511 163.001L496.511 159.001L488.307 159.001L488.307 163.001ZM504.716 163.001L512.92 163.001L512.92 159.001L504.716 159.001L504.716 163.001ZM521.125 163.001L529.329 163.001L529.329 159.001L521.125 159.001L521.125 163.001ZM537.534 163.001L545.738 163.001L545.738 159.001L537.534 159.001L537.534 163.001ZM553.943 163.001L562.148 163.001L562.148 159.001L553.943 159.001L553.943 163.001ZM570.352 163.001L578.557 163.001L578.557 159.001L570.352 159.001L570.352 163.001ZM586.761 163.001L594.966 163.001L594.966 159.001L586.761 159.001L586.761 163.001ZM603.17 163.001L611.375 163.001L611.375 159.001L603.17 159.001L603.17 163.001ZM619.579 163.001L627.784 163.001L627.784 159.001L619.579 159.001L619.579 163.001ZM635.988 163.001L644.193 163.001L644.193 159.001L635.988 159.001L635.988 163.001ZM652.398 163.001L656.5 163.001L656.5 159.001L652.398 159.001L652.398 163.001Z" fill="#1D281D"/>
</svg>
