<svg width="29" height="27" viewBox="0 0 29 27" fill="none" xmlns="http://www.w3.org/2000/svg">
<path d="M10.3333 7.75C10.3333 10.1317 12.1988 12.0625 14.5 12.0625C16.8012 12.0625 18.6667 10.1317 18.6667 7.75M2 20.4003V6.60028C2 4.99013 2 4.18445 2.30276 3.56946C2.56907 3.02849 2.99371 2.58899 3.51638 2.31336C4.11058 2 4.88901 2 6.44472 2H22.5558C24.1115 2 24.8883 2 25.4825 2.31336C26.0052 2.58899 26.4312 3.02849 26.6975 3.56946C27 4.18385 27 4.98855 27 6.59556V20.4051C27 22.0121 27 22.8157 26.6975 23.4301C26.4312 23.971 26.0052 24.4113 25.4825 24.687C24.8889 25 24.1125 25 22.5598 25H6.44015C4.88749 25 4.11 25 3.51638 24.687C2.99371 24.4113 2.56907 23.971 2.30276 23.4301C2 22.8151 2 22.0104 2 20.4003Z" stroke="white" stroke-width="2" stroke-linecap="round" stroke-linejoin="round"/>
<path d="M14.7724 18.8875H14.1486C13.5074 18.8875 13.1868 18.8875 13.0526 18.66C12.9183 18.4324 13.053 18.1173 13.3224 17.487L14.5658 14.578C14.7362 14.1795 14.8213 13.9802 14.9107 14.0015C15 14.0229 15 14.2424 15 14.6816V16.8659C15 16.9821 15 17.0403 15.0333 17.0764C15.0667 17.1124 15.1203 17.1124 15.2276 17.1124H15.8514C16.4926 17.1124 16.8132 17.1124 16.9474 17.34C17.0817 17.5676 16.947 17.8827 16.6776 18.5129L15.4342 21.4219C15.2638 21.8205 15.1787 22.0198 15.0893 21.9985C15 21.9772 15 21.7575 15 21.3184V19.1341C15 19.0179 15 18.9597 14.9667 18.9236C14.9334 18.8875 14.8797 18.8875 14.7724 18.8875Z" fill="white"/>
</svg>
