<svg width="26" height="26" viewBox="0 0 26 26" fill="none" xmlns="http://www.w3.org/2000/svg">
<path d="M20.0268 19.6667C18.5256 19.6667 17.3087 20.8606 17.3087 22.3333C17.3087 23.8061 18.5256 25 20.0268 25C21.528 25 22.7449 23.8061 22.7449 22.3333C22.7449 20.8606 21.528 19.6667 20.0268 19.6667ZM20.0268 19.6667H9.55384C8.92723 19.6667 8.61335 19.6667 8.35537 19.5573C8.12779 19.4608 7.93036 19.3055 7.78651 19.1074C7.62528 18.8853 7.56043 18.5884 7.43207 18.0007L4.08708 2.6862C3.95573 2.08485 3.88918 1.7845 3.72608 1.5599C3.58223 1.3618 3.38483 1.20588 3.15726 1.1094C2.89922 1 2.58709 1 1.96022 1H1M5.07717 5H22.5726C23.5536 5 24.0435 5 24.3728 5.20048C24.6612 5.37608 24.8723 5.65149 24.9643 5.97201C25.0694 6.33791 24.9344 6.79995 24.6625 7.72461L22.7808 14.1246C22.6182 14.6775 22.5369 14.9534 22.372 15.1585C22.2264 15.3396 22.0344 15.4813 21.8168 15.5684C21.5709 15.6667 21.2787 15.6667 20.6956 15.6667H7.42898M7.79529 25C6.29412 25 5.07717 23.8061 5.07717 22.3333C5.07717 20.8606 6.29412 19.6667 7.79529 19.6667C9.29647 19.6667 10.5134 20.8606 10.5134 22.3333C10.5134 23.8061 9.29647 25 7.79529 25Z" stroke="white" stroke-width="2" stroke-linecap="round" stroke-linejoin="round"/>
<path d="M14.3293 10.6657H13.8615C13.3806 10.6657 13.1401 10.6657 13.0394 10.495C12.9387 10.3243 13.0398 10.088 13.2418 9.61528L14.1744 7.43353C14.3021 7.13463 14.366 6.98518 14.433 7.00116C14.5 7.01714 14.5 7.18183 14.5 7.51121V9.14943C14.5 9.2366 14.5 9.2802 14.525 9.30727C14.55 9.33434 14.5902 9.33434 14.6707 9.33434H15.1385C15.6194 9.33434 15.8599 9.33434 15.9606 9.50501C16.0613 9.67571 15.9603 9.91202 15.7582 10.3847L14.8256 12.5665C14.6979 12.8654 14.634 13.0148 14.567 12.9988C14.5 12.9829 14.5 12.8182 14.5 12.4888V10.8506C14.5 10.7634 14.5 10.7198 14.475 10.6927C14.45 10.6657 14.4098 10.6657 14.3293 10.6657Z" fill="white"/>
</svg>
