<svg width="28" height="28" viewBox="0 0 28 28" fill="none" xmlns="http://www.w3.org/2000/svg">
<path d="M24.4218 1.7794C23.8105 1.52619 23.0354 1.52618 21.4855 1.52618C19.9359 1.52618 19.1606 1.52618 18.5493 1.77937C17.7342 2.11699 17.0866 2.76465 16.749 3.57974C16.4957 4.19106 16.4957 4.96605 16.4957 6.51602C16.4957 8.06511 16.4957 8.84109 16.7489 9.45224C17.0865 10.2673 17.7342 10.915 18.5493 11.2526C19.1606 11.5058 19.9356 11.5058 21.4855 11.5058C23.0355 11.5058 23.8094 11.5047 24.4207 11.2515C25.2358 10.9138 25.8834 10.2662 26.2211 9.45109C26.4743 8.83977 26.4753 8.06599 26.4753 6.51602C26.4753 4.96607 26.4753 4.19106 26.2221 3.57975C25.8845 2.76465 25.2369 2.11702 24.4218 1.7794Z" stroke="white" stroke-width="3" stroke-linecap="round" stroke-linejoin="round"/>
<path d="M9.45226 1.77883C8.84094 1.52561 8.06594 1.52561 6.51598 1.52561C4.96645 1.52561 4.19103 1.52561 3.5798 1.77879C2.76471 2.11642 2.11705 2.76408 1.77942 3.57917C1.52621 4.19049 1.52621 4.96549 1.5262 6.51545C1.52621 8.06453 1.52621 8.84052 1.77935 9.45167C2.11697 10.2668 2.76464 10.9144 3.57973 11.252C4.19105 11.5053 4.96604 11.5053 6.51601 11.5053C8.06598 11.5053 8.83983 11.5041 9.45115 11.2509C10.2662 10.9133 10.9139 10.2656 11.2515 9.45052C11.5047 8.8392 11.5058 8.06542 11.5058 6.51545C11.5058 4.96548 11.5058 4.19049 11.2526 3.57917C10.915 2.76408 10.2674 2.11645 9.45226 1.77883Z" stroke="white" stroke-width="3" stroke-linecap="round" stroke-linejoin="round"/>
<path d="M21.4861 16.4957C19.9365 16.4957 19.1611 16.4957 18.5499 16.7489C17.7348 17.0865 17.0871 17.7342 16.7495 18.5493C16.4963 19.1606 16.4963 19.9356 16.4963 21.4856C16.4963 23.0346 16.4963 23.8106 16.7495 24.4218C17.0871 25.2369 17.7347 25.8845 18.5498 26.2221C19.1612 26.4754 19.9361 26.4754 21.4861 26.4754C23.0361 26.4754 23.8099 26.4742 24.4213 26.221C25.2363 25.8834 25.884 25.2357 26.2216 24.4206C26.4748 23.8093 26.4759 23.0355 26.4759 21.4856C26.4759 19.9356 26.4759 19.1606 26.2227 18.5493C25.8851 17.7342 25.2375 17.0866 24.4224 16.7489C23.811 16.4957 23.036 16.4957 21.4861 16.4957Z" stroke="white" stroke-width="3" stroke-linecap="round" stroke-linejoin="round"/>
<path d="M9.45226 16.7489C8.84094 16.4957 8.06594 16.4957 6.51598 16.4957C4.96643 16.4957 4.19104 16.4957 3.5798 16.7489C2.7647 17.0865 2.11705 17.7342 1.77942 18.5493C1.52621 19.1606 1.52621 19.9356 1.52621 21.4856C1.52621 23.0346 1.52621 23.8106 1.77935 24.4218C2.11697 25.2369 2.76464 25.8845 3.57973 26.2221C4.19105 26.4754 4.96604 26.4754 6.51601 26.4754C8.06598 26.4754 8.83983 26.4742 9.45115 26.221C10.2662 25.8834 10.9139 25.2357 11.2515 24.4206C11.5047 23.8093 11.5058 23.0355 11.5058 21.4856C11.5058 19.9356 11.5058 19.1606 11.2526 18.5493C10.915 17.7342 10.2674 17.0866 9.45226 16.7489Z" stroke="white" stroke-width="3" stroke-linecap="round" stroke-linejoin="round"/>
</svg>
