<svg width="32" height="32" viewBox="0 0 32 32" fill="none" xmlns="http://www.w3.org/2000/svg">
<mask id="mask0_220_176" style="mask-type:luminance" maskUnits="userSpaceOnUse" x="0" y="0" width="32" height="32">
<path d="M0.588379 16.0934C0.588379 7.52671 7.57316 0.582031 16.1399 0.582031C24.7065 0.582031 31.6913 7.52671 31.6913 16.0934C31.6913 24.6601 24.7065 31.6048 16.1399 31.6048C7.57316 31.6048 0.588379 24.6601 0.588379 16.0934Z" fill="white"/>
</mask>
<g mask="url(#mask0_220_176)">
<path d="M16.1398 0.582031C7.55066 0.582031 0.588379 7.52636 0.588379 16.0934C0.588379 24.6604 7.55066 31.6048 16.1398 31.6048C24.729 31.6048 31.6913 24.6604 31.6913 16.0934C31.6913 7.52636 24.729 0.582031 16.1398 0.582031ZM16.1398 28.5026C9.28018 28.5026 3.69857 22.9354 3.69857 16.0934C3.69857 9.25142 9.28018 3.68421 16.1398 3.68421C22.9995 3.68421 28.5811 9.25142 28.5811 16.0934C28.5811 22.9354 22.9995 28.5026 16.1398 28.5026Z" fill="#a1a1aa"/>
<path d="M18.1588 21.7031H8.4025C8.17999 21.7031 8 21.8999 8 22.1433V23.487C8 23.729 8.17999 23.9259 8.4025 23.9259H18.1588C18.38 23.9259 18.5613 23.729 18.5613 23.487V22.1433C18.5613 21.8999 18.38 21.7031 18.1588 21.7031Z" fill="#a1a1aa"/>
<mask id="mask1_220_176" style="mask-type:luminance" maskUnits="userSpaceOnUse" x="8" y="8" width="17" height="16">
<path d="M8.93652 8H24.0001V24H8.93652V8Z" fill="white"/>
</mask>
<g mask="url(#mask1_220_176)">
<path d="M16.3135 13.977C16.3135 14.234 16.1236 14.4418 15.8898 14.4418H10.6711C10.4361 14.4418 10.246 14.234 10.246 13.977V10.1233C10.246 9.86761 10.4361 9.65981 10.6711 9.65981H15.8898C16.1236 9.65981 16.3135 9.86761 16.3135 10.1233V13.977ZM23.0648 17.2484C22.7173 16.3434 22.3623 15.4137 22.1973 14.4458C22.4636 14.4254 22.6736 14.1861 22.6736 13.8895V11.5682C22.6736 11.5559 22.6711 11.5436 22.6698 11.5299C22.6698 11.4807 22.6623 11.4288 22.6436 11.3795L22.636 11.3618C22.6335 11.355 22.6322 11.3495 22.6299 11.344L21.4673 8.24211C21.3936 8.04397 21.1874 7.9496 21.0049 8.03031C20.8236 8.11227 20.7373 8.33924 20.8111 8.53751L21.7373 11.0091H21.0698C20.7885 11.0091 20.5586 11.2606 20.5586 11.5682V13.8895C20.5586 14.1984 20.7885 14.4486 21.0698 14.4486H21.4798C21.646 15.5449 22.0323 16.5607 22.411 17.549C22.8636 18.7289 23.2898 19.843 23.2898 20.975C23.2898 22.0631 22.7411 23.2251 21.1999 23.2251C20.6848 23.2251 20.3261 23.0993 20.1011 22.841C19.6597 22.3338 19.7086 21.2976 19.7598 20.2012C19.8223 18.871 19.8873 17.4944 19.0998 16.6373C18.7411 16.2462 18.2486 16.0167 17.6073 15.9373V9.15951C17.6073 8.73427 17.2923 8.38988 16.9036 8.38988H9.65737C9.26862 8.38988 8.95227 8.73427 8.95227 9.15951V21.4452H17.6073V16.7166C18.0423 16.7821 18.3698 16.9381 18.5986 17.1868C19.1623 17.8006 19.106 19.0009 19.051 20.1615C18.9948 21.3728 18.9361 22.6263 19.5873 23.3755C19.9523 23.7964 20.4798 24.0002 21.1999 24.0002C22.8748 24.0002 23.9998 22.7849 23.9998 20.975C23.9998 19.6871 23.5248 18.4472 23.0648 17.2484Z" fill="#a1a1aa"/>
</g>
<mask id="mask2_220_176" style="mask-type:luminance" maskUnits="userSpaceOnUse" x="12" y="16" width="3" height="4">
<path d="M12.6475 16H14.584V19.7599H12.6475V16Z" fill="white"/>
</mask>
<g mask="url(#mask2_220_176)">
<path d="M12.6498 17.8765H13.294L12.6498 19.7553L14.5822 17.1719L13.7233 17.1688L14.1528 15.9976H13.0793L12.6498 17.8765Z" fill="white"/>
</g>
<mask id="mask3_220_176" style="mask-type:luminance" maskUnits="userSpaceOnUse" x="12" y="16" width="3" height="4">
<path d="M12.6475 16H14.584V19.7599H12.6475V16Z" fill="white"/>
</mask>
<g mask="url(#mask3_220_176)">
<path d="M12.6498 17.8765H13.294L12.6498 19.7553L14.5822 17.1719L13.7233 17.1688L14.1528 15.9976H13.0793L12.6498 17.8765Z" fill="#131413"/>
</g>
</g>
</svg>
