<svg width="32" height="32" viewBox="0 0 32 32" fill="none" xmlns="http://www.w3.org/2000/svg">
<mask id="mask0_220_174" style="mask-type:luminance" maskUnits="userSpaceOnUse" x="0" y="0" width="32" height="32">
<path d="M0.588379 16.0934C0.588379 7.52671 7.57316 0.582031 16.1399 0.582031C24.7065 0.582031 31.6913 7.52671 31.6913 16.0934C31.6913 24.6601 24.7065 31.6048 16.1399 31.6048C7.57316 31.6048 0.588379 24.6601 0.588379 16.0934Z" fill="white"/>
</mask>
<g mask="url(#mask0_220_174)">
<path d="M16.1398 0.582031C7.55066 0.582031 0.588379 7.52636 0.588379 16.0934C0.588379 24.6604 7.55066 31.6048 16.1398 31.6048C24.729 31.6048 31.6913 24.6604 31.6913 16.0934C31.6913 7.52636 24.729 0.582031 16.1398 0.582031ZM16.1398 28.5026C9.28018 28.5026 3.69857 22.9354 3.69857 16.0934C3.69857 9.25142 9.28018 3.68421 16.1398 3.68421C22.9995 3.68421 28.5811 9.25142 28.5811 16.0934C28.5811 22.9354 22.9995 28.5026 16.1398 28.5026Z" fill="#a1a1aa"/>
<path d="M15.0392 18.2189H13.2658C11.4427 18.2189 10.5312 18.2189 10.1495 17.65C9.76776 17.081 10.1507 16.2933 10.9166 14.7176L14.4519 7.44508C14.9363 6.44876 15.1783 5.9506 15.4324 6.00386C15.6863 6.05714 15.6863 6.6061 15.6863 7.70404V13.1648C15.6863 13.4553 15.6863 13.6007 15.7811 13.6909C15.8758 13.7811 16.0284 13.7811 16.3335 13.7811H18.1069C19.93 13.7811 20.8414 13.7811 21.2231 14.35C21.6048 14.919 21.222 15.7067 20.4561 17.2823L16.9207 24.5549C16.4364 25.5513 16.1944 26.0494 15.9403 25.9961C15.6863 25.9429 15.6863 25.3938 15.6863 24.296V18.8352C15.6863 18.5447 15.6863 18.3993 15.5916 18.3091C15.4968 18.2189 15.3442 18.2189 15.0392 18.2189Z" fill="#a1a1aa"/>
</g>
</svg>
